<svg width="245" height="226" viewBox="0 0 245 226" fill="none" xmlns="http://www.w3.org/2000/svg">
<path d="M243 120C243 152.958 233.87 179.181 216.631 197.161C199.398 215.134 173.935 225 141 225C108.043 225 72.9923 215.118 46.207 197.024C19.4315 178.937 1 152.714 1 120C1 103.739 8.22039 88.1752 20.1956 73.9342C32.1708 59.693 48.8549 46.8333 67.6462 36.0138C105.246 14.3646 151.076 1 184 1C200.44 1 212.253 4.33234 220.763 10.2512C229.264 16.1625 234.586 24.7339 237.897 35.4426C241.215 46.1698 242.499 58.9908 242.945 73.3217C243.247 82.9975 243.166 93.3105 243.082 104.098C243.041 109.295 243 114.601 243 120Z" fill="white" stroke="#3EA700" stroke-width="2"/>
</svg>
