<svg width="52" height="51" viewBox="0 0 52 51" fill="none" xmlns="http://www.w3.org/2000/svg">
<mask id="mask0" style="mask-type:alpha" maskUnits="userSpaceOnUse" x="0" y="0" width="52" height="51">
<path d="M4.02761 2.78834L7.12577 0H15.181C19.5184 0.413088 28.3791 1.23926 29.1227 1.23926C30.0521 1.23926 36.8681 4.02761 38.4172 4.95706C39.9663 5.8865 46.4724 9.60429 47.092 10.8436C47.5877 11.835 50.1902 19.5184 51.4294 23.2362L48.9509 38.727L35.6288 50.5L0 49.5705C1.34254 42.2382 4.02761 27.3258 4.02761 26.3344V2.78834Z" fill="black"/>
</mask>
<g mask="url(#mask0)">
<path d="M-12.1681 72.9866H-11.4624C-10.9254 71.5363 -10.6521 70.1432 -10.6521 67.1418V66.9337H-4.57955V72.9838H-3.67858L-3.92962 76.5217H-5.79852V74.9275H-10.037L-10.1848 76.5245H-12.1681V72.9866ZM-6.79014 72.9866V68.8773H-8.52236V68.9569C-8.49863 70.3265 -8.71192 71.6899 -9.15276 72.9866H-6.79014Z" fill="white"/>
<path d="M-2.80272 66.9337H-0.615829V71.4329L2.47203 66.9337H4.53479V74.9247H2.3479V70.4268L-0.739955 74.9247H-2.80272V66.9337Z" fill="white"/>
<path d="M5.67426 70.9312C5.67426 68.602 7.46227 66.7758 9.87788 66.7758C11.5083 66.7758 12.5278 67.4842 13.2252 68.4651L11.6073 69.7226C11.1512 69.1525 10.6157 68.7976 9.85278 68.7976C8.73702 68.7976 7.94902 69.745 7.94902 70.9326C7.94902 72.1203 8.73562 73.0677 9.85278 73.0677C10.6896 73.0677 11.1749 72.6792 11.6533 72.0966L13.3172 73.2843C12.5641 74.3224 11.5501 75.0881 9.78444 75.0881C7.5083 75.0867 5.67426 73.3401 5.67426 70.9312Z" fill="white"/>
<path d="M16.2126 68.8773H13.8193V66.9337H20.8165V68.8745H18.4232V74.9247H16.2126V68.8773Z" fill="white"/>
<path d="M23.5152 66.8792H25.6463L29.0424 74.9275H26.6714L26.0912 73.5008H23.0145L22.4441 74.9288H20.1205L23.5152 66.8792ZM25.4525 71.7696L24.564 69.4976L23.6645 71.7696H25.4525Z" fill="white"/>
<path d="M29.8165 66.9337H32.0271V69.9238H34.8639V66.9337H37.0745V74.9247H34.8639V71.8898H32.0271V74.9275H29.8165V66.9337Z" fill="white"/>
<path d="M44.4106 74.9275H38.4859V66.9337H40.6965V72.9838H43.4273V66.9337H45.631V72.9838H46.5306L46.2795 76.5217H44.4106V74.9275Z" fill="white"/>
<path d="M47.2823 66.9337H49.4692V71.4329L52.557 66.9337H54.6198V74.9247H52.4315V70.4268L49.3436 74.9247H47.2823V66.9337Z" fill="white"/>
<path d="M57.5696 72.1413C56.5793 71.7221 55.9294 70.9089 55.9294 69.6639C55.9294 67.7916 57.4217 66.9364 59.2334 66.9364H62.9991V74.9275H60.7941V72.5074H59.8262L58.2195 74.9275H55.6672L57.5696 72.1413ZM60.7941 70.8055V68.82H59.3478C58.6072 68.82 58.1512 69.1735 58.1512 69.8246C58.1512 70.4059 58.5835 70.8027 59.3366 70.8027L60.7941 70.8055Z" fill="white"/>
<path d="M-11.1653 56.6595H-9.03422L-5.63952 64.7078H-8.01051L-8.59489 63.2812H-11.6632L-12.2323 64.7078H-14.5614L-11.1653 56.6595ZM-9.22808 61.5499L-10.1179 59.278L-11.0175 61.5499H-9.22808Z" fill="white"/>
<path d="M-4.86546 56.7168H-0.774812C0.227976 56.7168 0.935086 56.9683 1.40231 57.4364C1.57271 57.6083 1.70607 57.8135 1.79411 58.0392C1.88215 58.2649 1.92302 58.5063 1.91417 58.7484C1.91417 59.6734 1.38976 60.2211 0.684042 60.5299C1.65196 60.8499 2.26702 61.3962 2.26702 62.5043C2.26702 63.875 1.15127 64.7078 -0.752495 64.7078H-4.86546V56.7168ZM-1.32153 59.9012C-0.64929 59.9012 -0.272718 59.6734 -0.272718 59.183C-0.272718 58.7484 -0.61442 58.4969 -1.27551 58.4969H-2.71205V59.8942L-1.32153 59.9012ZM-1.00215 62.9277C-0.329903 62.9277 0.0578232 62.6636 0.0578232 62.1731C0.0578232 61.74 -0.283879 61.4549 -1.02586 61.4549H-2.71205V62.9277H-1.00215Z" fill="white"/>
<path d="M5.00201 58.6576H2.60871V56.7168H9.6045V58.6576H7.2126V64.7078H5.00201V58.6576Z" fill="white"/>
<path d="M9.95459 60.713C9.95459 58.4173 11.7998 56.5575 14.2614 56.5575C16.7231 56.5575 18.5459 58.3949 18.5459 60.713C18.5459 63.0073 16.7007 64.8671 14.2391 64.8671C11.7775 64.8671 9.95459 63.0297 9.95459 60.713ZM16.2893 60.713C16.2893 59.5588 15.4525 58.5542 14.2391 58.5542C13.0257 58.5542 12.2224 59.5323 12.2224 60.713C12.2224 61.8657 13.0592 62.869 14.2614 62.869C15.4636 62.869 16.2921 61.8881 16.2921 60.713H16.2893Z" fill="white"/>
<path d="M19.6993 56.7168H21.9099V62.767H24.1805V56.7168H26.3911V62.767H28.6589V56.7168H30.8695V64.7078H19.6993V56.7168Z" fill="white"/>
<path d="M32.2767 56.7168H34.4873V59.9585L37.2335 56.7168H39.8541L36.8346 60.1527L39.9573 64.7078H37.3074L35.2962 61.74L34.4873 62.6412V64.7078H32.2767V56.7168Z" fill="white"/>
<path d="M39.7509 60.713C39.7509 58.4173 41.5961 56.5575 44.0577 56.5575C46.5194 56.5575 48.3422 58.3949 48.3422 60.713C48.3422 63.0073 46.4971 64.8671 44.0354 64.8671C41.5738 64.8671 39.7509 63.0297 39.7509 60.713ZM46.0856 60.713C46.0856 59.5588 45.2488 58.5542 44.0354 58.5542C42.822 58.5542 42.0187 59.5323 42.0187 60.713C42.0187 61.8657 42.8555 62.869 44.0577 62.869C45.26 62.869 46.0856 61.8881 46.0856 60.713Z" fill="white"/>
<path d="M48.2851 64.6393L48.4329 62.9388C48.6028 62.9649 48.7743 62.9798 48.9461 62.9835C49.5724 62.9835 50.1651 62.6636 50.1651 57.8234V56.7168H56.3018V64.7078H54.0842V58.6576H52.2265V58.9692C52.2265 63.8443 51.1553 64.8265 49.6058 64.8265C49.1592 64.8234 48.715 64.7604 48.2851 64.6393Z" fill="white"/>
<path d="M60.465 56.6595H62.5947L65.9907 64.7078H63.6198L63.0382 63.2812H59.9629L59.3924 64.7078H57.0689L60.465 56.6595ZM62.4008 61.5499L61.5124 59.278L60.6128 61.5499H62.4008Z" fill="white"/>
<path d="M5.32418 42.5498L3.05223 48.2353H22.6366L20.4427 42.5498H5.32418Z" fill="white"/>
<path d="M22.5836 42.5498H21.0131L23.2042 48.2353H24.2321L24.2196 48.2116C24.4399 48.2116 24.6589 48.1962 24.8765 48.1822L22.5836 42.5498Z" fill="white"/>
<path d="M8.96853 32.8779H16.7105L12.8918 22.9796L8.96853 32.8779Z" fill="white"/>
<path d="M13.1805 22.2488L17.2795 32.8779H19.0048L14.0187 20.1333L13.1805 22.2488Z" fill="white"/>
<path d="M23.1261 3.40797H5.86674V10.7884L8.14149 5.40608H20.0954L36.8667 45.1529C37.3562 44.8986 37.8332 44.6332 38.2934 44.3523L21.8542 5.40608H22.4316L38.7495 44.0645C44.974 40.0585 48.3813 33.4801 48.3813 25.6931C48.3757 12.6286 39.1038 3.40797 23.1261 3.40797Z" fill="white"/>
<path d="M31.207 44.5339L29.8974 45.0998L30.85 47.3495L30.9824 47.6638L32.3576 47.253L32.2432 46.982L31.207 44.5339Z" fill="white"/>
<path d="M14.0341 7.65848L15.4915 11.0972L16.8011 10.5313L15.5836 7.65848H14.0341Z" fill="white"/>
<path d="M29.2948 38.1498C29.6068 37.9902 29.8898 37.7791 30.1317 37.5252C30.2618 37.3823 30.3652 37.2171 30.4371 37.0376C30.6128 36.5737 30.5306 36.0804 30.3576 35.6026C30.2578 35.3338 30.1423 35.0711 30.0117 34.8159C29.9978 34.7921 29.988 34.7656 29.9741 34.7404C29.3502 33.4689 28.7518 32.1862 28.1791 30.8924C27.8239 30.095 27.479 29.2939 27.1442 28.489C27.0619 28.292 26.9741 28.0936 26.8932 27.8938C26.9596 27.9492 27.0392 27.9864 27.1243 28.0019C27.2093 28.0173 27.2969 28.0104 27.3785 27.9818C27.3928 27.9461 27.3976 27.9072 27.3925 27.869C27.3874 27.8308 27.3725 27.7946 27.3492 27.7639C27.3169 27.7168 27.2763 27.6761 27.2293 27.6437C27.1076 27.5871 26.9901 27.5217 26.8778 27.4481C26.7581 27.3173 26.6769 27.1557 26.6435 26.9814C26.4246 26.243 26.0894 25.5445 25.6505 24.912C25.578 24.8086 25.5013 24.7066 25.4218 24.6102C25.2332 24.3651 24.9849 24.1727 24.7007 24.0513C24.3032 23.9046 23.8639 23.9661 23.4455 24.0597C23.1735 24.1212 22.9043 24.1994 22.638 24.2833C22.1839 24.4293 21.7422 24.6116 21.3172 24.8282C21.2837 24.8436 21.246 24.8603 21.2112 24.8785C20.7398 25.1244 20.2795 25.4234 19.956 25.8496C19.6964 26.2174 19.5749 26.6653 19.6129 27.1141C19.6603 28.1481 20.2809 29.3009 20.7175 30.061C20.6218 30.1595 20.5629 30.288 20.5507 30.4249C20.5385 30.5618 20.5737 30.6988 20.6505 30.8127C20.7903 30.7022 20.9171 30.5761 21.0285 30.4368C21.108 30.6325 21.1889 30.8267 21.2684 31.0209L23.8025 37.2066C23.8262 37.2625 23.8486 37.3184 23.8723 37.3715C23.9099 37.4623 23.9434 37.5504 23.9811 37.6412C24.1596 38.0729 24.3437 38.5187 24.6686 38.8582C24.9659 39.1569 25.3532 39.3489 25.7705 39.4045C26.0565 39.4468 26.3484 39.421 26.6226 39.3291L29.2893 38.1512L29.2948 38.1498ZM26.2893 27.1574C26.3241 27.2273 26.3618 27.2972 26.3925 27.36C26.585 27.7611 26.7844 28.1551 26.9657 28.5589C27.0884 28.8384 27.2181 29.1094 27.3437 29.3861C27.4929 29.7256 27.6393 30.0638 27.7858 30.4033C27.8625 30.5864 27.9364 30.7736 28.0145 30.9622C28.0926 31.1509 28.154 31.2934 28.2223 31.4596C28.3716 31.8271 28.5208 32.1974 28.6672 32.5663C28.7732 32.8457 28.8848 33.1126 28.9783 33.3907C29.0424 33.5681 29.0787 33.7582 29.1303 33.9426C29.1665 34.0823 29.2014 34.2304 29.2516 34.3716C29.2786 34.4231 29.2906 34.4812 29.2865 34.5392C29.2865 34.5532 29.3032 34.5686 29.2865 34.577C29.2697 34.5854 29.2628 34.5686 29.2544 34.556C29.2042 34.4778 29.1512 34.3981 29.1038 34.3185C28.8499 33.8993 28.6184 33.4801 28.3981 33.0428C28.1986 32.6459 28.0145 32.2407 27.8248 31.8355C27.7244 31.6161 27.6282 31.3926 27.5347 31.1704C27.511 31.1117 27.4845 31.053 27.4608 30.9944C27.3297 30.6772 27.2028 30.36 27.0884 30.0344C26.942 29.6152 26.8095 29.1835 26.6909 28.7545L26.6728 28.6903C26.617 28.496 26.5612 28.3004 26.5068 28.1034C26.4594 27.9329 26.4148 27.7625 26.3744 27.5864C26.3479 27.4662 26.313 27.3461 26.2837 27.2231C26.2725 27.2049 26.2628 27.1868 26.2893 27.1588V27.1574ZM25.2725 24.9973L23.6965 24.4188C23.6965 24.4188 24.8193 23.9912 25.2725 24.9987V24.9973ZM20.0173 27.0554C19.7691 25.9781 20.9253 25.6414 20.9253 25.6414L20.0173 27.0554ZM20.9295 29.0004C21.0381 28.6979 21.1898 28.4127 21.3799 28.1537C21.5239 27.9641 21.6859 27.7891 21.8639 27.6311C21.9016 27.5948 21.9448 27.5654 21.9838 27.5305C22.0974 27.4345 22.2166 27.3453 22.3409 27.2636C22.3841 27.2343 22.4232 27.205 22.4664 27.1784C22.6868 27.0407 22.9204 26.9256 23.1638 26.8347C23.319 26.7728 23.4784 26.7219 23.6407 26.6824C24.0987 26.5614 24.5774 26.5414 25.0438 26.6237C25.2308 26.6547 25.4144 26.7038 25.5919 26.7704C25.6868 26.8067 25.7802 26.8584 25.8709 26.9003C25.8821 26.9068 25.8918 26.9157 25.8993 26.9263C25.9067 26.9369 25.9118 26.949 25.9141 26.9618C26.0536 27.4425 26.2014 27.919 26.3451 28.3996C26.3827 28.5254 26.419 28.6525 26.4566 28.7811C26.4859 28.8803 26.5152 28.9781 26.5473 29.0773C26.5571 29.1192 26.5473 29.1276 26.5068 29.136C26.3897 29.1625 26.2698 29.1863 26.1526 29.21C26.0759 29.2268 25.9992 29.2422 25.9211 29.2617C25.5626 29.3498 25.2056 29.4448 24.8541 29.5622C24.7467 29.5971 24.638 29.6376 24.532 29.6767C24.1941 29.8062 23.8643 29.956 23.5445 30.1253C23.4664 30.1658 23.3869 30.2077 23.3102 30.2538C22.9878 30.4399 22.6805 30.651 22.3911 30.8854C22.3172 30.9469 22.2446 31.0139 22.1707 31.0754L22.1163 31.1257C22.1094 31.1075 22.0982 31.0964 22.0898 31.0782C22.0285 30.9678 21.9629 30.8588 21.8988 30.7498C21.8346 30.6408 21.7593 30.5095 21.6937 30.3921C21.6282 30.2748 21.5473 30.142 21.4748 30.0135L20.9169 29.0633C20.9139 29.0526 20.9135 29.0413 20.9157 29.0304C20.9179 29.0195 20.9226 29.0092 20.9295 29.0004ZM24.2502 36.937C24.2279 36.9453 24.2265 36.9188 24.2154 36.9076C24.1601 36.842 24.1133 36.7697 24.0759 36.6924C24.02 36.6104 23.9684 36.5255 23.9211 36.4381C23.8332 36.2788 23.7314 36.1265 23.6421 35.9673C23.5027 35.713 23.3869 35.4433 23.2642 35.1792C23.0884 34.8061 22.9211 34.4303 22.7537 34.0544C22.6659 33.8574 22.5752 33.6618 22.4901 33.4619C22.4762 33.4326 22.4636 33.4005 22.4469 33.3683C22.3255 33.0805 22.1972 32.7954 22.0773 32.5076C21.9573 32.2198 21.8513 31.9655 21.7412 31.6944C21.6408 31.4457 21.5417 31.197 21.4469 30.9496C21.4274 30.9021 21.4092 30.8532 21.3911 30.8099C21.2516 30.4396 21.1122 30.0652 20.9811 29.6921C20.9811 29.6753 20.9615 29.66 20.9811 29.6418C20.9865 29.6413 20.992 29.6425 20.9967 29.6453C21.0015 29.648 21.0053 29.6522 21.0076 29.6572C21.147 29.9059 21.3102 30.1448 21.4594 30.3935C21.5445 30.5333 21.6352 30.687 21.723 30.8337C21.7454 30.8686 21.7691 30.9049 21.79 30.9427C21.9504 31.2221 22.1038 31.4918 22.2586 31.7698C22.2767 31.802 22.2907 31.8313 22.3088 31.8635C22.5375 32.2826 22.7426 32.72 22.935 33.1615L23.1373 33.6282C23.3158 34.0474 23.4831 34.4764 23.6435 34.9067C23.7174 35.1121 23.79 35.3175 23.8583 35.5229C23.9197 35.7018 23.9783 35.8806 24.0313 36.0609C24.1163 36.3403 24.1972 36.6114 24.2558 36.8992C24.2558 36.9076 24.2684 36.9272 24.2502 36.937ZM28.5654 36.9509C28.4427 37.0569 28.3127 37.154 28.1763 37.2416C28.1656 37.2501 28.1544 37.2581 28.1428 37.2653L28.1317 37.2737C27.9032 37.4218 27.6596 37.545 27.405 37.6412C27.2805 37.6909 27.1534 37.7338 27.0243 37.7697C26.9518 37.7879 26.8848 37.8019 26.8109 37.8172C26.3282 37.9236 25.8307 37.9444 25.3409 37.8787C25.3195 37.8777 25.2988 37.8704 25.2815 37.8577C25.2641 37.845 25.2508 37.8276 25.2433 37.8075C25.1442 37.5881 25.048 37.3673 24.9532 37.1479C24.9308 37.1032 24.9127 37.0599 24.8918 37.0152C24.8834 36.9929 24.8723 36.9691 24.8625 36.9481C24.7983 36.8084 24.7314 36.6575 24.67 36.5136C24.5668 36.2761 24.4608 36.0441 24.3534 35.815C24.3353 35.7744 24.3409 35.7591 24.3883 35.7423C24.783 35.6249 25.1735 35.5006 25.5626 35.3636C25.624 35.3427 25.6826 35.3189 25.7412 35.298C25.9462 35.2225 26.1596 35.1457 26.3562 35.066C26.3645 35.0643 26.3724 35.0614 26.3799 35.0576L26.4678 35.0199C26.6672 34.9347 26.8611 34.8438 27.0564 34.7474C27.2516 34.651 27.4845 34.5295 27.6923 34.4065C27.7635 34.3646 27.8318 34.3185 27.9057 34.2738C28.0536 34.1773 28.2028 34.0781 28.3451 33.9692C28.4008 33.9286 28.4134 33.951 28.4329 33.9985C28.5724 34.3366 28.723 34.6762 28.8667 35.0143C28.8904 35.073 28.9169 35.1317 28.9406 35.1904C28.988 35.3008 29.034 35.4097 29.0801 35.5187C29.1526 35.6864 29.2195 35.8555 29.2962 36.0231C29.3038 36.0381 29.3078 36.0546 29.3078 36.0714C29.3078 36.0881 29.3038 36.1046 29.2962 36.1196C29.2962 36.1196 29.2962 36.1293 29.2962 36.1349C29.0889 36.4375 28.8433 36.7118 28.5654 36.9509Z" fill="white"/>
<path d="M28.9894 39.3012L27.684 39.874L28.4622 41.7142L28.8765 42.6909L30.1847 42.1222L28.9894 39.3012Z" fill="white"/>
<path d="M22.154 23.1682L20.4985 19.26L19.1903 19.8259L20.8458 23.7341L22.154 23.1682Z" fill="white"/>
<path d="M17.8221 12.9416L16.5125 13.5075L18.168 17.4156L18.267 17.3737L19.4776 16.8497L17.8221 12.9416Z" fill="white"/>
</g>
</svg>
