<svg width="130" height="118" viewBox="0 0 130 118" fill="none" xmlns="http://www.w3.org/2000/svg">
<path d="M3.86246 112.29H5.00139C5.86797 109.95 6.30913 107.701 6.30913 102.858V102.522H16.1093V112.286H17.5634L17.1582 117.995H14.1421V115.423H7.30176L7.06317 118H3.86246V112.29ZM12.5417 112.29V105.658H9.74618V105.787C9.78448 107.997 9.44026 110.198 8.72879 112.29H12.5417Z" fill="white"/>
<path d="M18.9769 102.522H22.5062V109.783L27.4896 102.522H30.8186V115.418H27.2893V108.159L22.3059 115.418H18.9769V102.522Z" fill="white"/>
<path d="M32.6576 108.973C32.6576 105.214 35.5432 102.267 39.4416 102.267C42.0729 102.267 43.7182 103.41 44.8437 104.993L42.2327 107.023C41.4966 106.103 40.6323 105.53 39.4011 105.53C37.6004 105.53 36.3287 107.059 36.3287 108.975C36.3287 110.892 37.5982 112.421 39.4011 112.421C40.7516 112.421 41.5349 111.794 42.3069 110.854L44.9922 112.771C43.7767 114.446 42.1404 115.682 39.2908 115.682C35.6174 115.68 32.6576 112.861 32.6576 108.973Z" fill="white"/>
<path d="M49.665 105.658H45.8025V102.522H57.095V105.654H53.2326V115.418H49.665V105.658Z" fill="white"/>
<path d="M61.4504 102.434H64.8897L70.3705 115.423H66.5441L65.6077 113.12H60.6424L59.7218 115.425H55.9719L61.4504 102.434ZM64.5768 110.326L63.143 106.66L61.6912 110.326H64.5768Z" fill="white"/>
<path d="M71.6198 102.522H75.1874V107.347H79.7656V102.522H83.3332V115.418H79.7656V110.52H75.1874V115.423H71.6198V102.522Z" fill="white"/>
<path d="M95.1727 115.423H85.611V102.522H89.1786V112.286H93.5858V102.522H97.1422V112.286H98.5939L98.1888 117.995H95.1727V115.423Z" fill="white"/>
<path d="M99.8071 102.522H103.336V109.783L108.32 102.522H111.649V115.418H108.117V108.159L103.134 115.418H99.8071V102.522Z" fill="white"/>
<path d="M116.409 110.926C114.811 110.25 113.762 108.937 113.762 106.928C113.762 103.906 116.171 102.526 119.095 102.526H125.172V115.423H121.613V111.517H120.051L117.458 115.423H113.339L116.409 110.926ZM121.613 108.77V105.566H119.279C118.084 105.566 117.348 106.136 117.348 107.187C117.348 108.125 118.046 108.766 119.261 108.766L121.613 108.77Z" fill="white"/>
<path d="M5.48082 85.9406H8.92011L14.3987 98.9294H10.5722L9.62913 96.6271H4.67726L3.75891 98.9294H0L5.48082 85.9406ZM8.60724 93.8331L7.1712 90.1665L5.71941 93.8331H8.60724Z" fill="white"/>
<path d="M15.6479 86.033H22.2496C23.868 86.033 25.0092 86.4389 25.7632 87.1944C26.0382 87.4719 26.2534 87.803 26.3955 88.1672C26.5376 88.5314 26.6036 88.921 26.5893 89.3118C26.5893 90.8046 25.743 91.6886 24.604 92.1869C26.1661 92.7033 27.1587 93.585 27.1587 95.3733C27.1587 97.5854 25.3581 98.9294 22.2857 98.9294H15.6479V86.033ZM21.3673 91.1722C22.4522 91.1722 23.06 90.8046 23.06 90.0131C23.06 89.3118 22.5085 88.9059 21.4416 88.9059H19.1232V91.1609L21.3673 91.1722ZM21.8828 96.0565C22.9677 96.0565 23.5934 95.6303 23.5934 94.8388C23.5934 94.1398 23.0419 93.6797 21.8445 93.6797H19.1232V96.0565H21.8828Z" fill="white"/>
<path d="M31.5726 89.1652H27.7102V86.033H39.0004V89.1652H35.1402V98.9294H31.5726V89.1652Z" fill="white"/>
<path d="M39.5654 92.4823C39.5654 88.7774 42.5433 85.7759 46.516 85.7759C50.4888 85.7759 53.4306 88.7413 53.4306 92.4823C53.4306 96.1851 50.4528 99.1865 46.48 99.1865C42.5073 99.1865 39.5654 96.2211 39.5654 92.4823ZM49.7888 92.4823C49.7888 90.6197 48.4383 88.9984 46.48 88.9984C44.5218 88.9984 43.2253 90.5769 43.2253 92.4823C43.2253 94.3427 44.5758 95.9618 46.516 95.9618C48.4563 95.9618 49.7933 94.3788 49.7933 92.4823H49.7888Z" fill="white"/>
<path d="M55.2921 86.033H58.8597V95.7972H62.5241V86.033H66.0917V95.7972H69.7515V86.033H73.3191V98.9294H55.2921V86.033Z" fill="white"/>
<path d="M75.5902 86.033H79.1578V91.2646L83.5898 86.033H87.8191L82.946 91.5781L87.9856 98.9294H83.709L80.4633 94.1398L79.1578 95.5943V98.9294H75.5902V86.033Z" fill="white"/>
<path d="M87.6525 92.4823C87.6525 88.7774 90.6304 85.7759 94.6032 85.7759C98.5759 85.7759 101.518 88.7413 101.518 92.4823C101.518 96.1851 98.5399 99.1865 94.5671 99.1865C90.5944 99.1865 87.6525 96.2211 87.6525 92.4823ZM97.8759 92.4823C97.8759 90.6197 96.5254 88.9984 94.5671 88.9984C92.6089 88.9984 91.3124 90.5769 91.3124 92.4823C91.3124 94.3427 92.6629 95.9618 94.6032 95.9618C96.5434 95.9618 97.8759 94.3788 97.8759 92.4823Z" fill="white"/>
<path d="M101.425 98.8189L101.664 96.0746C101.938 96.1166 102.215 96.1407 102.492 96.1467C103.503 96.1467 104.46 95.6303 104.46 87.819V86.033H114.363V98.9294H110.784V89.1652H107.786V89.6681C107.786 97.5358 106.058 99.1211 103.557 99.1211C102.836 99.1159 102.119 99.0143 101.425 98.8189Z" fill="white"/>
<path d="M121.082 85.9406H124.519L130 98.9294H126.174L125.235 96.6271H120.272L119.351 98.9294H115.601L121.082 85.9406ZM124.206 93.8331L122.773 90.1665L121.321 93.8331H124.206Z" fill="white"/>
<path d="M32.0926 63.1695L28.426 72.3451H60.0324L56.4918 63.1695H32.0926Z" fill="white"/>
<path d="M59.9468 63.1695H57.4124L60.9485 72.3451H62.6073L62.5871 72.3068C62.9427 72.3068 63.2961 72.282 63.6472 72.2594L59.9468 63.1695Z" fill="white"/>
<path d="M37.974 47.5604H50.4685L44.3057 31.5859L37.974 47.5604Z" fill="white"/>
<path d="M44.7716 30.4065L51.3869 47.5604H54.1712L46.1244 26.9924L44.7716 30.4065Z" fill="white"/>
<path d="M60.8224 0H32.9682V11.9109L36.6393 3.22466H55.9313L82.9978 67.3706C83.7878 66.9602 84.5576 66.5317 85.3004 66.0785L58.7697 3.22466H59.7015L86.0364 65.6139C96.082 59.1488 101.581 48.5323 101.581 35.9651C101.572 14.8808 86.6081 0 60.8224 0Z" fill="white"/>
<path d="M73.8639 66.3716L71.7503 67.2849L73.2876 70.9155L73.5015 71.4228L75.7208 70.7599L75.5362 70.3224L73.8639 66.3716Z" fill="white"/>
<path d="M46.1491 6.85973L48.5013 12.4093L50.6148 11.496L48.6498 6.85973H46.1491Z" fill="white"/>
<path d="M70.7779 56.0685C71.2814 55.8109 71.738 55.4702 72.1284 55.0605C72.3384 54.8298 72.5054 54.5633 72.6214 54.2735C72.905 53.5248 72.7722 52.7288 72.4931 51.9576C72.3319 51.5238 72.1455 51.0999 71.9348 50.688C71.9123 50.6497 71.8966 50.6069 71.8741 50.5663C70.8672 48.5142 69.9016 46.4441 68.9772 44.356C68.404 43.0691 67.8473 41.7763 67.3071 40.4774C67.1743 40.1594 67.0325 39.8392 66.902 39.5167C67.0092 39.6061 67.1377 39.6662 67.2749 39.6911C67.4122 39.716 67.5535 39.7049 67.6852 39.6588C67.7083 39.6011 67.7161 39.5383 67.7078 39.4767C67.6995 39.4151 67.6755 39.3566 67.638 39.307C67.5858 39.2311 67.5202 39.1654 67.4444 39.1131C67.2479 39.0218 67.0584 38.9163 66.8772 38.7974C66.6839 38.5863 66.553 38.3256 66.4991 38.0442C66.1457 36.8526 65.6047 35.7252 64.8964 34.7046C64.7794 34.5377 64.6556 34.3731 64.5273 34.2175C64.2229 33.8219 63.8222 33.5113 63.3636 33.3155C62.7221 33.0787 62.0131 33.1779 61.3378 33.329C60.8989 33.4282 60.4645 33.5545 60.0346 33.6898C59.3018 33.9256 58.589 34.2196 57.9031 34.5693C57.849 34.5941 57.7883 34.6211 57.732 34.6504C56.9712 35.0473 56.2284 35.5299 55.7062 36.2177C55.2874 36.8113 55.0913 37.5341 55.1525 38.2584C55.229 39.9271 56.2307 41.7875 56.9352 43.0142C56.7808 43.1732 56.6857 43.3807 56.666 43.6016C56.6463 43.8226 56.7032 44.0436 56.8271 44.2274C57.0528 44.0491 57.2574 43.8456 57.4371 43.6208C57.5654 43.9365 57.696 44.25 57.8243 44.5634L61.9141 54.5464C61.9523 54.6366 61.9883 54.7268 62.0266 54.8124C62.0874 54.959 62.1414 55.1011 62.2022 55.2477C62.4903 55.9445 62.7874 56.6638 63.3118 57.2118C63.7915 57.6938 64.4166 58.0037 65.09 58.0935C65.5516 58.1617 66.0228 58.12 66.4653 57.9717L70.7689 56.0707L70.7779 56.0685ZM65.9273 38.3284C65.9836 38.4411 66.0444 38.5539 66.0939 38.6553C66.4045 39.3025 66.7264 39.9384 67.019 40.5901C67.2171 41.0411 67.4264 41.4786 67.629 41.9251C67.8698 42.4731 68.1062 43.0188 68.3425 43.5667C68.4663 43.8621 68.5856 44.1643 68.7116 44.4687C68.8377 44.7732 68.9367 45.0032 69.047 45.2715C69.2878 45.8646 69.5287 46.4622 69.765 47.0575C69.9361 47.5085 70.1162 47.9392 70.267 48.3879C70.3705 48.6743 70.429 48.981 70.5123 49.2787C70.5708 49.5042 70.6271 49.7432 70.7081 49.9709C70.7516 50.0541 70.7711 50.1479 70.7644 50.2416C70.7644 50.2641 70.7914 50.2889 70.7644 50.3024C70.7374 50.316 70.7261 50.2889 70.7126 50.2686C70.6316 50.1423 70.5461 50.0138 70.4695 49.8853C70.0599 49.2088 69.6862 48.5323 69.3306 47.8264C69.0087 47.186 68.7116 46.5321 68.4055 45.8781C68.2435 45.5241 68.0882 45.1633 67.9373 44.8047C67.8991 44.71 67.8563 44.6153 67.8181 44.5206C67.6065 44.0087 67.4016 43.4968 67.2171 42.9714C66.9807 42.2949 66.7669 41.5981 66.5756 40.9058L66.5463 40.8021C66.4563 40.4886 66.3662 40.1729 66.2785 39.855C66.2019 39.5799 66.1299 39.3048 66.0646 39.0206C66.0219 38.8267 65.9656 38.6328 65.9183 38.4343C65.9003 38.405 65.8846 38.3757 65.9273 38.3306V38.3284ZM64.2865 34.8421L61.743 33.9085C61.743 33.9085 63.5549 33.2185 64.2865 34.8444V34.8421ZM55.8053 38.1637C55.4046 36.4251 57.2706 35.8817 57.2706 35.8817L55.8053 38.1637ZM57.2773 41.3027C57.4526 40.8144 57.6975 40.3542 58.0043 39.9362C58.2366 39.6302 58.4982 39.3477 58.7854 39.0928C58.8462 39.0342 58.9159 38.9868 58.979 38.9304C59.1623 38.7754 59.3547 38.6316 59.5552 38.4997C59.625 38.4524 59.688 38.405 59.7578 38.3622C60.1134 38.14 60.4904 37.9541 60.8832 37.8074C61.1337 37.7076 61.391 37.6255 61.653 37.5616C62.392 37.3664 63.1646 37.3341 63.9173 37.4669C64.2191 37.517 64.5154 37.5963 64.8019 37.7037C64.955 37.7623 65.1058 37.8458 65.2521 37.9134C65.2702 37.9239 65.2858 37.9382 65.2979 37.9553C65.3099 37.9725 65.3181 37.992 65.3219 38.0126C65.5469 38.7884 65.7855 39.5573 66.0174 40.3331C66.0781 40.536 66.1367 40.7412 66.1974 40.9487C66.2447 41.1088 66.292 41.2666 66.3437 41.4267C66.3595 41.4944 66.3437 41.5079 66.2785 41.5214C66.0894 41.5643 65.8958 41.6026 65.7068 41.6409C65.583 41.668 65.4592 41.6928 65.3331 41.7244C64.7546 41.8665 64.1784 42.0198 63.6112 42.2092C63.4379 42.2656 63.2623 42.331 63.0913 42.3941C62.546 42.6031 62.0138 42.8448 61.4977 43.118C61.3716 43.1834 61.2433 43.251 61.1195 43.3254C60.5992 43.6257 60.1032 43.9665 59.6362 44.3447C59.5169 44.4439 59.3999 44.5522 59.2806 44.6514L59.1928 44.7326C59.1815 44.7033 59.1635 44.6852 59.15 44.6559C59.051 44.4778 58.9452 44.3019 58.8417 44.126C58.7381 43.9501 58.6166 43.7381 58.5108 43.5487C58.405 43.3593 58.2744 43.145 58.1574 42.9376L57.2571 41.4042C57.2523 41.3869 57.2516 41.3687 57.2552 41.351C57.2587 41.3334 57.2663 41.3169 57.2773 41.3027ZM62.6366 54.1111C62.6006 54.1247 62.5983 54.0818 62.5803 54.0638C62.4912 53.9578 62.4156 53.8412 62.3552 53.7165C62.2651 53.584 62.1817 53.4471 62.1054 53.3061C61.9636 53.049 61.7993 52.8032 61.6552 52.5462C61.4301 52.1358 61.2433 51.7005 61.0452 51.2743C60.7616 50.6723 60.4915 50.0657 60.2214 49.4591C60.0796 49.1411 59.9333 48.8254 59.796 48.5029C59.7735 48.4556 59.7533 48.4037 59.7262 48.3519C59.5304 47.8873 59.3233 47.4273 59.1298 46.9628C58.9362 46.4982 58.7651 46.0878 58.5873 45.6504C58.4253 45.249 58.2654 44.8476 58.1124 44.4484C58.0809 44.3718 58.0516 44.2928 58.0224 44.2229C57.7973 43.6254 57.5722 43.021 57.3606 42.4189C57.3606 42.3919 57.3291 42.3671 57.3606 42.3377C57.3694 42.3369 57.3783 42.3389 57.3859 42.3433C57.3936 42.3478 57.3997 42.3545 57.4034 42.3626C57.6285 42.7639 57.8918 43.1496 58.1326 43.5509C58.2699 43.7764 58.4163 44.0245 58.5581 44.2613C58.5941 44.3176 58.6323 44.3763 58.6661 44.4372C58.9249 44.8882 59.1725 45.3234 59.4224 45.7721C59.4516 45.824 59.4741 45.8713 59.5034 45.9232C59.8725 46.5997 60.2034 47.3055 60.514 48.0181L60.8404 48.7713C61.1285 49.4478 61.3986 50.1401 61.6575 50.8346C61.7768 51.1661 61.8938 51.4976 62.0041 51.8291C62.1031 52.1177 62.1977 52.4064 62.2832 52.6973C62.4205 53.1483 62.5511 53.5857 62.6456 54.0503C62.6456 54.0638 62.6659 54.0954 62.6366 54.1111ZM69.6007 54.1337C69.4027 54.3047 69.1928 54.4614 68.9727 54.6027C68.9555 54.6166 68.9375 54.6294 68.9187 54.6411L68.9007 54.6546C68.532 54.8936 68.1389 55.0924 67.728 55.2477C67.5271 55.3279 67.322 55.3972 67.1135 55.4551C66.9965 55.4844 66.8884 55.507 66.7691 55.5318C65.9902 55.7034 65.1873 55.737 64.3968 55.631C64.3622 55.6293 64.3288 55.6175 64.3008 55.5971C64.2729 55.5766 64.2514 55.5485 64.2392 55.516C64.0794 55.162 63.9241 54.8057 63.771 54.4516C63.735 54.3795 63.7057 54.3096 63.672 54.2374C63.6585 54.2013 63.6405 54.163 63.6247 54.1292C63.5212 53.9037 63.4131 53.6601 63.3141 53.4279C63.1475 53.0445 62.9765 52.6702 62.8032 52.3004C62.7739 52.235 62.7829 52.2102 62.8594 52.1831C63.4964 51.9937 64.1266 51.793 64.7546 51.572C64.8537 51.5382 64.9482 51.4998 65.0427 51.466C65.3736 51.3442 65.718 51.2202 66.0354 51.0917C66.0487 51.0888 66.0615 51.0843 66.0736 51.0782L66.2154 51.0173C66.5373 50.8797 66.8502 50.7331 67.1653 50.5775C67.4804 50.4219 67.8563 50.2258 68.1917 50.0273C68.3065 49.9597 68.4168 49.8853 68.5361 49.8131C68.7747 49.6575 69.0155 49.4974 69.2451 49.3215C69.3351 49.2561 69.3554 49.2922 69.3869 49.3689C69.612 49.9146 69.8551 50.4625 70.0869 51.0083C70.1252 51.103 70.1679 51.1977 70.2062 51.2924C70.2827 51.4705 70.357 51.6464 70.4313 51.8223C70.5483 52.0929 70.6564 52.3658 70.7802 52.6364C70.7924 52.6605 70.7988 52.6871 70.7988 52.7142C70.7988 52.7412 70.7924 52.7679 70.7802 52.792C70.7802 52.792 70.7802 52.8077 70.7802 52.8168C70.4456 53.305 70.0491 53.7477 69.6007 54.1337Z" fill="white"/>
<path d="M70.285 57.9266L68.1782 58.8512L69.4342 61.821L70.1027 63.3973L72.214 62.4795L70.285 57.9266Z" fill="white"/>
<path d="M59.2536 31.8903L56.5818 25.583L54.4705 26.4963L57.1423 32.8036L59.2536 31.8903Z" fill="white"/>
<path d="M52.2624 15.3859L50.1489 16.2992L52.8206 22.6064L52.9805 22.5388L54.9342 21.6932L52.2624 15.3859Z" fill="white"/>
</svg>
