<svg width="170" height="154" viewBox="0 0 170 154" fill="none" xmlns="http://www.w3.org/2000/svg">
<path d="M5.05091 146.548H6.54028C7.6735 143.494 8.2504 140.559 8.2504 134.238V133.799H21.066V146.542H22.9675L22.4377 153.994H18.4935V150.636H9.54845L9.23645 154H5.05091V146.548ZM16.4007 146.548V137.893H12.745V138.061C12.7951 140.946 12.345 143.817 11.4146 146.548H16.4007Z" fill="#3EA700"/>
<path d="M24.8159 133.799H29.4312V143.276L35.9479 133.799H40.3013V150.63H35.686V141.157L29.1693 150.63H24.8159V133.799Z" fill="#3EA700"/>
<path d="M42.706 142.219C42.706 137.313 46.4795 133.467 51.5775 133.467C55.0184 133.467 57.17 134.959 58.6417 137.025L55.2273 139.674C54.2648 138.473 53.1346 137.725 51.5245 137.725C49.1698 137.725 47.5068 139.721 47.5068 142.222C47.5068 144.724 49.1668 146.719 51.5245 146.719C53.2906 146.719 54.3149 145.901 55.3245 144.674L58.836 147.175C57.2465 149.362 55.1067 150.975 51.3803 150.975C46.5766 150.972 42.706 147.293 42.706 142.219Z" fill="#3EA700"/>
<path d="M64.9465 137.893H59.8956V133.799H74.6627V137.887H69.6118V150.63H64.9465V137.893Z" fill="#3EA700"/>
<path d="M80.3582 133.685H84.8558L92.023 150.636H87.0192L85.7947 147.631H79.3015L78.0977 150.639H73.194L80.3582 133.685ZM84.4466 143.985L82.5717 139.2L80.6732 143.985H84.4466Z" fill="#3EA700"/>
<path d="M93.6566 133.799H98.3219V140.097H104.309V133.799H108.974V150.63H104.309V144.238H98.3219V150.636H93.6566V133.799Z" fill="#3EA700"/>
<path d="M124.457 150.636H111.953V133.799H116.618V146.542H122.381V133.799H127.032V146.542H128.931L128.401 153.994H124.457V150.636Z" fill="#3EA700"/>
<path d="M130.517 133.799H135.132V143.276L141.649 133.799H146.002V150.63H141.384V141.157L134.867 150.63H130.517V133.799Z" fill="#3EA700"/>
<path d="M152.228 144.768C150.138 143.885 148.766 142.172 148.766 139.55C148.766 135.606 151.916 133.805 155.739 133.805H163.686V150.636H159.033V145.539H156.99L153.599 150.636H148.213L152.228 144.768ZM159.033 141.954V137.772H155.98C154.418 137.772 153.455 138.517 153.455 139.888C153.455 141.113 154.368 141.949 155.957 141.949L159.033 141.954Z" fill="#3EA700"/>
<path d="M7.16722 112.16H11.6648L18.829 129.111H13.8252L12.5919 126.106H6.11642L4.9155 129.111H0L7.16722 112.16ZM11.2556 122.46L9.37772 117.675L7.47922 122.46H11.2556Z" fill="#3EA700"/>
<path d="M20.4626 112.28H29.0957C31.212 112.28 32.7043 112.81 33.6904 113.796C34.05 114.158 34.3314 114.59 34.5172 115.066C34.703 115.541 34.7893 116.049 34.7706 116.559C34.7706 118.508 33.6639 119.661 32.1745 120.312C34.2172 120.986 35.5153 122.136 35.5153 124.47C35.5153 127.357 33.1606 129.111 29.1428 129.111H20.4626V112.28ZM27.9419 118.987C29.3606 118.987 30.1553 118.508 30.1553 117.475C30.1553 116.559 29.4342 116.03 28.039 116.03H25.0073V118.973L27.9419 118.987ZM28.6159 125.362C30.0346 125.362 30.8529 124.806 30.8529 123.773C30.8529 122.86 30.1318 122.26 28.5659 122.26H25.0073V125.362H28.6159Z" fill="#3EA700"/>
<path d="M41.2873 116.368H36.2364V112.28H51.0005V116.368H45.9526V129.111H41.2873V116.368Z" fill="#3EA700"/>
<path d="M51.7394 120.697C51.7394 115.862 55.6335 111.945 60.8287 111.945C66.0238 111.945 69.8708 115.815 69.8708 120.697C69.8708 125.53 65.9767 129.447 60.7816 129.447C55.5864 129.447 51.7394 125.577 51.7394 120.697ZM65.1084 120.697C65.1084 118.266 63.3423 116.15 60.7816 116.15C58.2208 116.15 56.5254 118.21 56.5254 120.697C56.5254 123.125 58.2914 125.238 60.8287 125.238C63.3659 125.238 65.1143 123.172 65.1143 120.697H65.1084Z" fill="#3EA700"/>
<path d="M72.305 112.28H76.9704V125.023H81.7622V112.28H86.4276V125.023H91.2135V112.28H95.8789V129.111H72.305V112.28Z" fill="#3EA700"/>
<path d="M98.8488 112.28H103.514V119.108L109.31 112.28H114.84L108.468 119.517L115.058 129.111H109.466L105.221 122.86L103.514 124.759V129.111H98.8488V112.28Z" fill="#3EA700"/>
<path d="M114.623 120.697C114.623 115.862 118.517 111.945 123.712 111.945C128.907 111.945 132.754 115.815 132.754 120.697C132.754 125.53 128.86 129.447 123.665 129.447C118.47 129.447 114.623 125.577 114.623 120.697ZM127.992 120.697C127.992 118.266 126.226 116.15 123.665 116.15C121.104 116.15 119.409 118.21 119.409 120.697C119.409 123.125 121.175 125.238 123.712 125.238C126.249 125.238 127.992 123.172 127.992 120.697Z" fill="#3EA700"/>
<path d="M132.633 128.967L132.945 125.385C133.304 125.44 133.666 125.472 134.028 125.48C135.35 125.48 136.601 124.806 136.601 114.611V112.28H149.552V129.111H144.872V116.368H140.951V117.024C140.951 127.292 138.691 129.361 135.421 129.361C134.478 129.355 133.541 129.222 132.633 128.967Z" fill="#3EA700"/>
<path d="M158.338 112.16H162.833L170 129.111H164.996L163.769 126.106H157.279L156.075 129.111H151.171L158.338 112.16ZM162.424 122.46L160.549 117.675L158.65 122.46H162.424Z" fill="#3EA700"/>
<path d="M41.9672 82.4416L37.1724 94.4165H78.5039L73.8739 82.4416H41.9672Z" fill="#3EA700"/>
<path d="M78.392 82.4416H75.0777L79.7018 94.4165H81.8711L81.8446 94.3665C82.3097 94.3665 82.7718 94.3341 83.231 94.3047L78.392 82.4416Z" fill="#3EA700"/>
<path d="M49.6584 62.0703H65.9973L57.9382 41.2222L49.6584 62.0703Z" fill="#3EA700"/>
<path d="M58.5475 39.6831L67.1982 62.0703H70.8392L60.3165 35.2274L58.5475 39.6831Z" fill="#3EA700"/>
<path d="M79.537 0H43.1122V15.5448L47.913 4.20846H73.141L108.536 87.9243C109.569 87.3887 110.575 86.8295 111.547 86.238L76.8526 4.20846H78.0712L112.509 85.6317C125.646 77.1942 132.836 63.3387 132.836 46.9375C132.825 19.4207 113.257 0 79.537 0Z" fill="#3EA700"/>
<path d="M96.5912 86.6206L93.8273 87.8125L95.8377 92.5507L96.1173 93.2129L99.0195 92.3476L98.7781 91.7767L96.5912 86.6206Z" fill="#3EA700"/>
<path d="M60.3489 8.95253L63.4247 16.1952L66.1886 15.0033L63.619 8.95253H60.3489Z" fill="#3EA700"/>
<path d="M92.5557 73.1741C93.2142 72.838 93.8112 72.3933 94.3218 71.8586C94.5964 71.5576 94.8147 71.2097 94.9664 70.8315C95.3373 69.8545 95.1636 68.8156 94.7986 67.8091C94.5879 67.243 94.3442 66.6897 94.0686 66.1522C94.0392 66.1022 94.0186 66.0462 93.9892 65.9933C92.6725 63.3152 91.4098 60.6135 90.201 57.8883C89.4514 56.2089 88.7234 54.5215 88.017 52.8264C87.8433 52.4114 87.6579 51.9935 87.4872 51.5727C87.6274 51.6894 87.7954 51.7678 87.9749 51.8003C88.1544 51.8327 88.3392 51.8182 88.5115 51.7581C88.5416 51.6827 88.5518 51.6009 88.5409 51.5204C88.5301 51.44 88.4987 51.3637 88.4497 51.299C88.3814 51.1999 88.2956 51.1141 88.1965 51.0459C87.9396 50.9267 87.6917 50.789 87.4548 50.6339C87.202 50.3584 87.0308 50.0181 86.9603 49.6509C86.4982 48.0958 85.7907 46.6244 84.8646 45.2924C84.7115 45.0746 84.5496 44.8598 84.3819 44.6567C83.9838 44.1405 83.4598 43.7351 82.8601 43.4795C82.0212 43.1705 81.0941 43.3 80.211 43.4972C79.6371 43.6267 79.069 43.7915 78.5068 43.9681C77.5485 44.2757 76.6164 44.6595 75.7194 45.1158C75.6487 45.1482 75.5693 45.1835 75.4957 45.2217C74.5008 45.7397 73.5295 46.3695 72.8466 47.2671C72.2989 48.0419 72.0425 48.9851 72.1225 49.9305C72.2226 52.1083 73.5324 54.5363 74.4537 56.1372C74.2518 56.3447 74.1274 56.6154 74.1017 56.9038C74.076 57.1922 74.1504 57.4806 74.3124 57.7206C74.6075 57.4878 74.8751 57.2222 75.1101 56.9289C75.2779 57.3409 75.4486 57.75 75.6164 58.1591L80.9645 71.1876C81.0146 71.3053 81.0617 71.423 81.1117 71.5349C81.1912 71.7262 81.2618 71.9116 81.3413 72.1029C81.7181 73.0123 82.1066 73.9511 82.7924 74.6662C83.4197 75.2952 84.2371 75.6997 85.1177 75.8169C85.7214 75.906 86.3375 75.8515 86.9161 75.658L92.544 73.1771L92.5557 73.1741ZM86.2127 50.0217C86.2863 50.1689 86.3657 50.316 86.4305 50.4485C86.8367 51.2931 87.2576 52.123 87.6402 52.9735C87.8992 53.5621 88.173 54.1331 88.4379 54.7158C88.7528 55.4309 89.0619 56.1431 89.3709 56.8583C89.5328 57.2438 89.6888 57.6382 89.8537 58.0355C90.0185 58.4328 90.148 58.7329 90.2922 59.0832C90.6072 59.8572 90.9221 60.6371 91.2312 61.414C91.4549 62.0026 91.6904 62.5647 91.8876 63.1503C92.023 63.5241 92.0995 63.9244 92.2084 64.3128C92.2849 64.6071 92.3585 64.9191 92.4645 65.2163C92.5214 65.3249 92.5469 65.4472 92.5381 65.5695C92.5381 65.5989 92.5734 65.6313 92.5381 65.6489C92.5027 65.6666 92.488 65.6313 92.4704 65.6048C92.3644 65.44 92.2526 65.2722 92.1525 65.1045C91.6168 64.2216 91.1282 63.3387 90.6631 62.4176C90.2422 61.5817 89.8537 60.7283 89.4534 59.8748C89.2415 59.4128 89.0383 58.9419 88.8411 58.474C88.7911 58.3504 88.7352 58.2268 88.6852 58.1032C88.4085 57.4351 88.1406 56.767 87.8992 56.0813C87.5902 55.1984 87.3106 54.2891 87.0604 53.3856L87.0221 53.2502C86.9044 52.8411 86.7866 52.4291 86.6718 52.0141C86.5718 51.6551 86.4776 51.2961 86.3922 50.9252C86.3363 50.6721 86.2627 50.419 86.2009 50.1601C86.1773 50.1218 86.1567 50.0835 86.2127 50.0247V50.0217ZM84.0669 45.4719L80.7409 44.2535C80.7409 44.2535 83.1103 43.353 84.0669 45.4749V45.4719ZM72.9761 49.8069C72.4522 47.5379 74.8923 46.8286 74.8923 46.8286L72.9761 49.8069ZM74.9011 53.9035C75.1304 53.2663 75.4506 52.6656 75.8518 52.1201C76.1556 51.7207 76.4976 51.3521 76.8732 51.0194C76.9527 50.9429 77.0439 50.8811 77.1263 50.8075C77.366 50.6052 77.6176 50.4175 77.8799 50.2454C77.9711 50.1836 78.0535 50.1218 78.1448 50.0659C78.6098 49.7759 79.1029 49.5334 79.6165 49.3419C79.9441 49.2116 80.2805 49.1044 80.6231 49.0211C81.5896 48.7663 82.5998 48.7242 83.5842 48.8975C83.9789 48.9629 84.3663 49.0663 84.741 49.2065C84.9411 49.2831 85.1383 49.3919 85.3296 49.4802C85.3533 49.4939 85.3738 49.5126 85.3895 49.5349C85.4053 49.5573 85.416 49.5828 85.4209 49.6097C85.7152 50.6221 86.0272 51.6257 86.3304 52.6381C86.4099 52.9029 86.4864 53.1707 86.5659 53.4415C86.6277 53.6504 86.6895 53.8564 86.7572 54.0654C86.7778 54.1537 86.7572 54.1713 86.6718 54.189C86.4246 54.2449 86.1715 54.2949 85.9242 54.345C85.7623 54.3803 85.6004 54.4127 85.4356 54.4539C84.6792 54.6393 83.9256 54.8394 83.1839 55.0866C82.9572 55.1602 82.7276 55.2455 82.5039 55.3279C81.7909 55.6006 81.095 55.9161 80.42 56.2726C80.2552 56.358 80.0874 56.4463 79.9255 56.5434C79.2451 56.9353 78.5965 57.3801 77.9858 57.8736C77.8298 58.0031 77.6768 58.1444 77.5207 58.2738L77.406 58.3798C77.3913 58.3415 77.3677 58.318 77.35 58.2797C77.2205 58.0472 77.0822 57.8177 76.9468 57.5881C76.8114 57.3586 76.6525 57.0819 76.5141 56.8347C76.3758 56.5875 76.205 56.3079 76.052 56.0372L74.8746 54.036C74.8684 54.0134 74.8675 53.9896 74.8721 53.9666C74.8767 53.9436 74.8867 53.922 74.9011 53.9035ZM81.9094 70.6196C81.8623 70.6373 81.8594 70.5814 81.8358 70.5578C81.7193 70.4195 81.6204 70.2673 81.5415 70.1046C81.4236 69.9317 81.3145 69.7529 81.2147 69.569C81.0293 69.2335 80.8144 68.9127 80.6261 68.5772C80.3317 68.0416 80.0874 67.4736 79.8284 66.9174C79.4575 66.1316 79.1043 65.3399 78.7511 64.5483C78.5657 64.1333 78.3743 63.7213 78.1948 63.3004C78.1654 63.2386 78.1389 63.171 78.1035 63.1033C77.8475 62.497 77.5767 61.8966 77.3235 61.2904C77.0704 60.6841 76.8467 60.1485 76.6142 59.5776C76.4023 59.0537 76.1933 58.5299 75.9931 58.009C75.9519 57.9089 75.9136 57.8059 75.8754 57.7147C75.581 56.9348 75.2867 56.1461 75.01 55.3603C75.01 55.325 74.9688 55.2926 75.01 55.2543C75.0215 55.2533 75.0331 55.2558 75.0431 55.2616C75.0531 55.2674 75.0611 55.2762 75.0659 55.2867C75.3603 55.8106 75.7047 56.3138 76.0196 56.8377C76.1992 57.132 76.3905 57.4557 76.5759 57.7647C76.623 57.8383 76.673 57.9148 76.7172 57.9943C77.0557 58.5829 77.3795 59.1508 77.7062 59.7365C77.7445 59.8042 77.7739 59.866 77.8121 59.9337C78.2949 60.8166 78.7276 61.7377 79.1337 62.6677L79.5605 63.6507C79.9373 64.5336 80.2905 65.437 80.629 66.3435C80.785 66.7761 80.9381 67.2087 81.0823 67.6413C81.2118 68.018 81.3354 68.3947 81.4473 68.7744C81.6268 69.363 81.7975 69.9339 81.9212 70.5402C81.9212 70.5578 81.9477 70.599 81.9094 70.6196ZM91.0163 70.6491C90.7574 70.8722 90.4829 71.0767 90.1951 71.2612C90.1726 71.2792 90.149 71.296 90.1245 71.3112L90.1009 71.3289C89.6188 71.6408 89.1047 71.9002 88.5674 72.1029C88.3046 72.2076 88.0364 72.298 87.7638 72.3736C87.6108 72.4119 87.4695 72.4413 87.3135 72.4737C86.2949 72.6977 85.2449 72.7415 84.2111 72.6032C84.1659 72.6009 84.1223 72.5855 84.0857 72.5589C84.0491 72.5322 84.0211 72.4955 84.0051 72.4531C83.7961 71.991 83.593 71.5261 83.3929 71.064C83.3458 70.9698 83.3075 70.8786 83.2634 70.7844C83.2457 70.7373 83.2222 70.6873 83.2016 70.6432C83.0662 70.3489 82.9249 70.031 82.7954 69.7279C82.5775 69.2276 82.3538 68.7391 82.1272 68.2564C82.0889 68.1711 82.1007 68.1387 82.2008 68.1034C83.0338 67.8562 83.8579 67.5942 84.6791 67.3058C84.8087 67.2617 84.9323 67.2117 85.0559 67.1675C85.4886 67.0086 85.9389 66.8467 86.354 66.679C86.3713 66.6753 86.3881 66.6693 86.404 66.6613L86.5894 66.5819C87.0103 66.4023 87.4195 66.211 87.8315 66.008C88.2436 65.8049 88.7352 65.5489 89.1737 65.2899C89.3239 65.2016 89.4681 65.1045 89.6241 65.0103C89.9361 64.8073 90.251 64.5983 90.5513 64.3687C90.669 64.2834 90.6955 64.3305 90.7367 64.4305C91.031 65.1428 91.3489 65.8579 91.6521 66.5701C91.7021 66.6937 91.7581 66.8173 91.8081 66.9409C91.9082 67.1734 92.0053 67.403 92.1024 67.6325C92.2555 67.9857 92.3968 68.3418 92.5587 68.6949C92.5747 68.7264 92.5831 68.7612 92.5831 68.7964C92.5831 68.8317 92.5747 68.8665 92.5587 68.898C92.5587 68.898 92.5587 68.9186 92.5587 68.9304C92.1211 69.5676 91.6027 70.1453 91.0163 70.6491Z" fill="#3EA700"/>
<path d="M91.9111 75.5991L89.1561 76.8058L90.7985 80.6817L91.6727 82.7388L94.4337 81.541L91.9111 75.5991Z" fill="#3EA700"/>
<path d="M77.4855 41.6196L73.9916 33.388L71.2307 34.58L74.7245 42.8115L77.4855 41.6196Z" fill="#3EA700"/>
<path d="M68.3432 20.0799L65.5793 21.2718L69.0732 29.5033L69.2821 29.415L71.837 28.3114L68.3432 20.0799Z" fill="#3EA700"/>
<path d="M7.16722 111.949H11.6648L18.829 128.869H13.8252L12.5919 125.869H6.11642L4.9155 128.869H0L7.16722 111.949ZM11.2556 122.23L9.37773 117.454L7.47922 122.23H11.2556Z" fill="#187B00"/>
<path d="M20.4626 112.069H29.0957C31.212 112.069 32.7043 112.598 33.6903 113.582C34.05 113.944 34.3314 114.375 34.5172 114.849C34.703 115.324 34.7893 115.831 34.7706 116.34C34.7706 118.285 33.6639 119.436 32.1745 120.086C34.2172 120.758 35.5153 121.907 35.5153 124.236C35.5153 127.118 33.1605 128.869 29.1428 128.869H20.4626V112.069ZM27.9419 118.764C29.3606 118.764 30.1553 118.285 30.1553 117.254C30.1553 116.34 29.4342 115.812 28.039 115.812H25.0073V118.749L27.9419 118.764ZM28.6159 125.126C30.0346 125.126 30.8529 124.571 30.8529 123.54C30.8529 122.629 30.1318 122.03 28.5659 122.03H25.0073V125.126H28.6159Z" fill="#187B00"/>
<path d="M41.2873 116.149H36.2364V112.069H51.0006V116.149H45.9526V128.869H41.2873V116.149Z" fill="#187B00"/>
<path d="M51.7394 120.47C51.7394 115.644 55.6335 111.734 60.8287 111.734C66.0238 111.734 69.8708 115.597 69.8708 120.47C69.8708 125.294 65.9767 129.203 60.7816 129.203C55.5864 129.203 51.7394 125.341 51.7394 120.47ZM65.1084 120.47C65.1084 118.044 63.3423 115.932 60.7816 115.932C58.2208 115.932 56.5254 117.988 56.5254 120.47C56.5254 122.894 58.2914 125.003 60.8287 125.003C63.3659 125.003 65.1143 122.941 65.1143 120.47H65.1084Z" fill="#187B00"/>
<path d="M72.305 112.069H76.9703V124.788H81.7622V112.069H86.4276V124.788H91.2135V112.069H95.8789V128.869H72.305V112.069Z" fill="#187B00"/>
<path d="M98.8488 112.069H103.514V118.884L109.31 112.069H114.84L108.468 119.292L115.058 128.869H109.466L105.221 122.629L103.514 124.524V128.869H98.8488V112.069Z" fill="#187B00"/>
<path d="M114.623 120.47C114.623 115.644 118.517 111.734 123.712 111.734C128.907 111.734 132.754 115.597 132.754 120.47C132.754 125.294 128.86 129.203 123.665 129.203C118.47 129.203 114.623 125.341 114.623 120.47ZM127.992 120.47C127.992 118.044 126.225 115.932 123.665 115.932C121.104 115.932 119.409 117.988 119.409 120.47C119.409 122.894 121.175 125.003 123.712 125.003C126.249 125.003 127.992 122.941 127.992 120.47Z" fill="#187B00"/>
<path d="M132.633 128.725L132.945 125.15C133.304 125.204 133.666 125.236 134.028 125.244C135.35 125.244 136.601 124.571 136.601 114.396V112.069H149.552V128.869H144.872V116.149H140.951V116.804C140.951 127.053 138.691 129.118 135.421 129.118C134.478 129.112 133.541 128.979 132.633 128.725Z" fill="#187B00"/>
<path d="M158.338 111.949H162.833L170 128.869H164.996L163.769 125.869H157.279L156.075 128.869H151.171L158.338 111.949ZM162.424 122.23L160.549 117.454L158.65 122.23H162.424Z" fill="#187B00"/>
<path d="M41.9672 82.2866L37.1724 94.239H78.5039L73.8739 82.2866H41.9672Z" fill="#187B00"/>
<path d="M78.392 82.2866H75.0777L79.7019 94.239H81.8712L81.8447 94.1891C82.3097 94.1891 82.7718 94.1568 83.231 94.1274L78.392 82.2866Z" fill="#187B00"/>
<path d="M49.6584 61.9536H65.9973L57.9382 41.1447L49.6584 61.9536Z" fill="#187B00"/>
<path d="M58.5475 39.6085L67.1982 61.9536H70.8392L60.3165 35.1612L58.5475 39.6085Z" fill="#187B00"/>
<path d="M79.537 0H43.1122V15.5156L47.9129 4.20054H73.141L108.536 87.759C109.569 87.2244 110.575 86.6663 111.547 86.0759L76.8526 4.20054H78.0712L112.509 85.4708C125.646 77.0491 132.836 63.2196 132.836 46.8493C132.825 19.3842 113.257 0 79.537 0Z" fill="#187B00"/>
<path d="M92.5557 73.0366C93.2142 72.7011 93.8112 72.2572 94.3218 71.7235C94.5964 71.4231 94.8147 71.0758 94.9664 70.6984C95.3372 69.7232 95.1636 68.6862 94.7986 67.6816C94.5879 67.1166 94.3442 66.5644 94.0686 66.0278C94.0392 65.9779 94.0186 65.9221 93.9892 65.8692C92.6725 63.1961 91.4098 60.4996 90.201 57.7795C89.4514 56.1032 88.7234 54.4191 88.017 52.7271C87.8433 52.3129 87.6579 51.8958 87.4872 51.4757C87.6274 51.5922 87.7954 51.6705 87.9749 51.7029C88.1544 51.7353 88.3393 51.7208 88.5115 51.6608C88.5416 51.5856 88.5518 51.5039 88.5409 51.4236C88.5301 51.3433 88.4987 51.2672 88.4497 51.2026C88.3814 51.1037 88.2956 51.018 88.1965 50.9499C87.9396 50.831 87.6917 50.6936 87.4548 50.5387C87.202 50.2638 87.0308 49.9241 86.9603 49.5576C86.4982 48.0054 85.7907 46.5368 84.8646 45.2072C84.7115 44.9899 84.5496 44.7754 84.3819 44.5728C83.9838 44.0575 83.4598 43.6529 82.8601 43.3978C82.0212 43.0893 81.0941 43.2186 80.211 43.4154C79.6371 43.5447 79.069 43.7092 78.5068 43.8854C77.5486 44.1925 76.6164 44.5756 75.7194 45.031C75.6488 45.0633 75.5693 45.0986 75.4957 45.1367C74.5008 45.6537 73.5295 46.2823 72.8466 47.1783C72.2989 47.9516 72.0425 48.8931 72.1225 49.8367C72.2226 52.0104 73.5324 54.4338 74.4537 56.0317C74.2518 56.2388 74.1275 56.509 74.1017 56.7968C74.076 57.0847 74.1504 57.3726 74.3124 57.6121C74.6075 57.3797 74.8751 57.1146 75.1101 56.8219C75.2779 57.2331 75.4486 57.6414 75.6164 58.0497L80.9646 71.0538C81.0146 71.1713 81.0617 71.2888 81.1117 71.4004C81.1912 71.5914 81.2618 71.7764 81.3413 71.9673C81.7181 72.875 82.1066 73.8121 82.7924 74.5259C83.4197 75.1537 84.2371 75.5574 85.1177 75.6744C85.7214 75.7633 86.3375 75.709 86.9162 75.5158L92.544 73.0395L92.5557 73.0366ZM86.2127 49.9277C86.2863 50.0746 86.3657 50.2215 86.4305 50.3536C86.8367 51.1967 87.2576 52.025 87.6402 52.874C87.8992 53.4615 88.173 54.0313 88.4379 54.6129C88.7528 55.3267 89.0619 56.0376 89.3709 56.7514C89.5328 57.1362 89.6888 57.5298 89.8537 57.9264C90.0185 58.3229 90.148 58.6225 90.2922 58.9721C90.6072 59.7447 90.9221 60.5231 91.2312 61.2986C91.4549 61.8861 91.6904 62.4471 91.8876 63.0317C92.023 63.4047 92.0995 63.8042 92.2084 64.1919C92.2849 64.4857 92.3585 64.7971 92.4645 65.0937C92.5214 65.2021 92.5469 65.3242 92.5381 65.4462C92.5381 65.4756 92.5734 65.5079 92.5381 65.5255C92.5027 65.5432 92.488 65.5079 92.4704 65.4815C92.3644 65.317 92.2525 65.1495 92.1525 64.9821C91.6168 64.1009 91.1282 63.2197 90.6631 62.3002C90.2422 61.466 89.8537 60.6141 89.4534 59.7623C89.2414 59.3011 89.0383 58.8311 88.8411 58.364C88.7911 58.2407 88.7352 58.1173 88.6852 57.9939C88.4085 57.3271 88.1406 56.6603 87.8993 55.9759C87.5902 55.0947 87.3106 54.187 87.0604 53.2852L87.0221 53.1501C86.9044 52.7418 86.7866 52.3305 86.6718 51.9164C86.5718 51.558 86.4776 51.1996 86.3922 50.8295C86.3363 50.5769 86.2627 50.3243 86.2009 50.0658C86.1773 50.0276 86.1567 49.9894 86.2127 49.9307V49.9277ZM84.0669 45.3864L80.7409 44.1703C80.7409 44.1703 83.1103 43.2715 84.0669 45.3894V45.3864ZM72.9761 49.7133C72.4522 47.4485 74.8923 46.7406 74.8923 46.7406L72.9761 49.7133ZM74.9011 53.8022C75.1304 53.1662 75.4506 52.5666 75.8519 52.0221C76.1556 51.6235 76.4977 51.2556 76.8732 50.9235C76.9527 50.8471 77.0439 50.7854 77.1263 50.712C77.366 50.5101 77.6177 50.3227 77.8799 50.151C77.9711 50.0893 78.0535 50.0276 78.1448 49.9718C78.6099 49.6823 79.1029 49.4403 79.6165 49.2492C79.9441 49.1191 80.2805 49.0121 80.6231 48.929C81.5896 48.6747 82.5999 48.6326 83.5842 48.8056C83.9789 48.8708 84.3663 48.9741 84.741 49.114C84.9411 49.1904 85.1383 49.2991 85.3296 49.3872C85.3533 49.4009 85.3738 49.4195 85.3895 49.4418C85.4053 49.4641 85.416 49.4896 85.4209 49.5165C85.7152 50.527 86.0272 51.5286 86.3304 52.5391C86.4099 52.8035 86.4864 53.0708 86.5659 53.341C86.6277 53.5496 86.6895 53.7552 86.7572 53.9638C86.7778 54.0519 86.7572 54.0695 86.6718 54.0871C86.4246 54.1429 86.1715 54.1929 85.9242 54.2428C85.7623 54.2781 85.6004 54.3104 85.4356 54.3515C84.6792 54.5366 83.9256 54.7363 83.1839 54.9831C82.9572 55.0565 82.7277 55.1417 82.504 55.2239C81.7909 55.4961 81.095 55.811 80.42 56.1668C80.2552 56.252 80.0874 56.3402 79.9255 56.4371C79.2451 56.8283 78.5965 57.2722 77.9858 57.7648C77.8298 57.8941 77.6768 58.0351 77.5208 58.1643L77.406 58.2701C77.3913 58.2319 77.3677 58.2084 77.35 58.1702C77.2205 57.9381 77.0822 57.709 76.9468 57.4799C76.8114 57.2508 76.6525 56.9746 76.5141 56.7279C76.3758 56.4812 76.2051 56.2021 76.052 55.9318L74.8746 53.9344C74.8684 53.9118 74.8675 53.8881 74.8721 53.8652C74.8767 53.8422 74.8867 53.8206 74.9011 53.8022ZM81.9094 70.4869C81.8623 70.5045 81.8594 70.4487 81.8358 70.4252C81.7193 70.2872 81.6204 70.1352 81.5415 69.9728C81.4236 69.8003 81.3145 69.6218 81.2148 69.4382C81.0293 69.1033 80.8144 68.7832 80.6261 68.4483C80.3317 67.9137 80.0874 67.3467 79.8284 66.7916C79.4575 66.0073 79.1043 65.2171 78.7511 64.4269C78.5657 64.0128 78.3744 63.6015 78.1948 63.1815C78.1654 63.1198 78.1389 63.0522 78.1036 62.9847C77.8475 62.3795 77.5767 61.7803 77.3236 61.1752C77.0704 60.5701 76.8467 60.0355 76.6142 59.4656C76.4023 58.9427 76.1933 58.4199 75.9931 57.8999C75.9519 57.8001 75.9137 57.6973 75.8754 57.6062C75.5811 56.8278 75.2867 56.0405 75.01 55.2562C75.01 55.221 74.9688 55.1887 75.01 55.1505C75.0216 55.1494 75.0331 55.152 75.0431 55.1578C75.0532 55.1636 75.0611 55.1723 75.066 55.1828C75.3603 55.7057 75.7047 56.208 76.0196 56.7308C76.1992 57.0246 76.3905 57.3477 76.5759 57.6561C76.623 57.7296 76.673 57.8059 76.7172 57.8853C77.0557 58.4727 77.3795 59.0397 77.7062 59.6242C77.7445 59.6918 77.7739 59.7535 77.8122 59.821C78.2949 60.7023 78.7276 61.6217 79.1338 62.5499L79.5605 63.531C79.9373 64.4123 80.2905 65.314 80.629 66.2188C80.785 66.6506 80.9381 67.0824 81.0823 67.5142C81.2118 67.8902 81.3354 68.2662 81.4473 68.6451C81.6268 69.2326 81.7976 69.8025 81.9212 70.4076C81.9212 70.4252 81.9477 70.4663 81.9094 70.4869ZM91.0163 70.5163C90.7574 70.739 90.4829 70.9431 90.1951 71.1272C90.1726 71.1453 90.149 71.1619 90.1245 71.1772L90.1009 71.1948C89.6188 71.5061 89.1047 71.7651 88.5674 71.9673C88.3046 72.0719 88.0364 72.1621 87.7638 72.2376C87.6108 72.2758 87.4695 72.3052 87.3135 72.3375C86.2949 72.5611 85.2449 72.6048 84.2111 72.4667C84.1659 72.4645 84.1223 72.4491 84.0857 72.4225C84.0491 72.3959 84.0211 72.3592 84.0051 72.3169C83.7961 71.8557 83.593 71.3916 83.3929 70.9304C83.3458 70.8364 83.3075 70.7454 83.2634 70.6514C83.2457 70.6044 83.2222 70.5544 83.2016 70.5104C83.0662 70.2166 82.9249 69.8994 82.7954 69.5968C82.5776 69.0975 82.3539 68.6099 82.1272 68.1281C82.0889 68.0429 82.1007 68.0106 82.2008 67.9754C83.0338 67.7286 83.8579 67.4672 84.6791 67.1793C84.8087 67.1353 84.9323 67.0853 85.0559 67.0413C85.4886 66.8826 85.9389 66.7211 86.354 66.5536C86.3713 66.5499 86.3881 66.544 86.404 66.536L86.5894 66.4567C87.0103 66.2775 87.4195 66.0866 87.8315 65.8839C88.2436 65.6812 88.7352 65.4257 89.1737 65.1672C89.3239 65.079 89.4681 64.9821 89.6241 64.8881C89.9361 64.6854 90.251 64.4769 90.5513 64.2477C90.669 64.1626 90.6955 64.2096 90.7367 64.3094C91.031 65.0203 91.3489 65.7341 91.6521 66.445C91.7021 66.5683 91.7581 66.6917 91.8081 66.8151C91.9082 67.0471 92.0053 67.2763 92.1024 67.5054C92.2555 67.8579 92.3968 68.2133 92.5587 68.5658C92.5747 68.5972 92.583 68.6319 92.583 68.6671C92.583 68.7024 92.5747 68.7371 92.5587 68.7685C92.5587 68.7685 92.5587 68.789 92.5587 68.8008C92.1211 69.4368 91.6027 70.0135 91.0163 70.5163Z" fill="#187B00"/>
</svg>
