<svg width="200" height="201" viewBox="0 0 200 201" fill="none" xmlns="http://www.w3.org/2000/svg">
<path d="M83.6374 11.9744L77.7882 14.0304L83.0724 20.0168L83.2611 19.9505L83.6374 11.9744ZM81.5607 22.3502L71.5405 11.0326L74.2576 10.0776L76.6304 12.8474L83.8003 10.3271L83.9181 6.68176L86.6352 5.72669L85.9004 20.8247L81.5607 22.3502Z" fill="#3EA700"/>
<path d="M48.8297 31.1211C48.5122 30.7263 48.3861 30.2717 48.4514 29.7572C48.5063 29.251 48.8121 28.7057 49.3686 28.1212C48.5286 28.6086 47.7754 28.8208 47.1088 28.758C46.4403 28.7139 45.918 28.458 45.542 27.9905C45.2746 27.658 45.1019 27.2836 45.0238 26.8674C44.9436 26.4698 44.9758 26.0418 45.1204 25.5834C45.265 25.1249 45.5261 24.6411 45.9038 24.132C46.2898 23.6334 46.8153 23.1167 47.4803 22.5819L52.078 18.8844L58.5956 26.9887L54.4655 30.3102C53.8005 30.845 53.1789 31.2422 52.6007 31.5019C52.0309 31.772 51.5065 31.9285 51.0277 31.9713C50.5572 32.0246 50.1365 31.9695 49.7654 31.8059C49.3923 31.6611 49.0804 31.4328 48.8297 31.1211ZM48.3577 23.6728C47.8901 24.0489 47.6226 24.4608 47.555 24.9087C47.4874 25.3566 47.5957 25.7571 47.8798 26.1104C48.1639 26.4637 48.5319 26.6553 48.9839 26.6854C49.4358 26.7155 49.8956 26.5425 50.3631 26.1665L52.7788 24.2237L50.7734 21.7301L48.3577 23.6728ZM51.7081 26.8814C51.2405 27.2575 50.9688 27.6642 50.8928 28.1017C50.8253 28.5496 50.9168 28.9293 51.1675 29.2411C51.4182 29.5528 51.7653 29.7185 52.2089 29.7381C52.6608 29.7682 53.1206 29.5952 53.5881 29.2192L55.5363 27.6525L53.6562 25.3147L51.7081 26.8814Z" fill="#3EA700"/>
<path d="M31.8501 50.6312L34.233 47.1727L26.8219 42.0663L28.4105 39.7606L35.8217 44.867L38.2046 41.4085L39.3575 42.2028L33.0029 51.4255L31.8501 50.6312Z" fill="#3EA700"/>
<path d="M14.7616 63.9648C14.6338 64.3719 14.5903 64.7775 14.6312 65.1816C14.672 65.5857 14.8095 65.9713 15.0437 66.3383C15.2905 66.7092 15.6508 67.0529 16.1244 67.3693C16.5941 67.6984 17.1978 67.9788 17.9356 68.2105C18.6735 68.4421 19.3291 68.5571 19.9026 68.5555C20.4721 68.5666 20.9578 68.4885 21.3597 68.3212C21.7743 68.1579 22.1139 67.9221 22.3783 67.6138C22.6428 67.3055 22.839 66.9479 22.9668 66.5408C23.0946 66.1337 23.1381 65.7281 23.0972 65.324C23.0564 64.9199 22.9125 64.5323 22.6657 64.1614C22.4315 63.7944 22.0796 63.4463 21.61 63.1172C21.1363 62.8008 20.5306 62.5268 19.7928 62.2951C19.0549 62.0635 18.4013 61.9421 17.8318 61.931C17.2583 61.9327 16.7642 62.0151 16.3496 62.1784C15.9477 62.3457 15.6145 62.5835 15.3501 62.8918C15.0856 63.2001 14.8894 63.5577 14.7616 63.9648ZM24.2071 66.9302C23.9395 67.7825 23.573 68.5269 23.1077 69.1634C22.651 69.8166 22.1139 70.3258 21.4962 70.6908C20.8912 71.0599 20.2076 71.2785 19.4456 71.3467C18.6922 71.4316 17.8894 71.3403 17.037 71.0727C16.172 70.8011 15.4547 70.4152 14.885 69.915C14.3114 69.4274 13.8755 68.8573 13.5773 68.2047C13.2918 67.5561 13.1484 66.8333 13.147 66.0363C13.129 65.248 13.2537 64.4277 13.5213 63.5754C13.7929 62.7104 14.1614 61.9596 14.6267 61.3231C15.0793 60.6826 15.6082 60.1778 16.2132 59.8088C16.8309 59.4437 17.5164 59.2187 18.2698 59.1338C19.0191 59.0616 19.8263 59.1613 20.6914 59.4329C21.5437 59.7005 22.2566 60.078 22.8303 60.5656C23.4126 61.0698 23.8466 61.6463 24.1321 62.2949C24.4303 62.9475 24.582 63.666 24.5874 64.4502C24.6054 65.2385 24.4787 66.0652 24.2071 66.9302Z" fill="#3EA700"/>
<path d="M6.07506 86.4204L16.4552 85.7774L16.6283 88.5721L7.6455 89.1285L7.86808 92.7216L16.8509 92.1652L17.024 94.9598L8.0412 95.5163L8.26378 99.1094L17.2466 98.5529L17.4197 101.348L7.03958 101.991L6.07506 86.4204Z" fill="#3EA700"/>
<path d="M15.9147 128.319L15.0603 126.401L10.9496 128.232L9.81042 125.674L19.3107 121.443L20.4499 124L16.3392 125.831L17.1936 127.75L22.5656 128.751L23.7862 131.491L17.7034 130.369L14.3672 135.905L13.0653 132.982L15.9147 128.319Z" fill="#3EA700"/>
<path d="M25.9132 155.052C26.1982 155.37 26.525 155.614 26.8934 155.785C27.2619 155.956 27.6636 156.034 28.0987 156.02C28.5437 155.997 29.0231 155.862 29.5368 155.616C30.0594 155.38 30.6084 155.003 31.1839 154.487C31.7594 153.97 32.1927 153.465 32.4837 152.971C32.7836 152.486 32.9641 152.029 33.0251 151.598C33.096 151.158 33.0664 150.746 32.936 150.361C32.8057 149.976 32.5981 149.625 32.313 149.308C32.028 148.99 31.7013 148.746 31.3329 148.575C30.9644 148.404 30.5577 148.33 30.1127 148.353C29.6776 148.368 29.1987 148.493 28.6761 148.729C28.1624 148.975 27.6178 149.356 27.0424 149.873C26.4669 150.39 26.0292 150.89 25.7292 151.374C25.4382 151.868 25.2572 152.335 25.1863 152.775C25.1253 153.206 25.1599 153.614 25.2902 153.999C25.4205 154.384 25.6282 154.735 25.9132 155.052ZM33.2805 148.439C33.8772 149.104 34.3307 149.799 34.6409 150.524C34.97 151.25 35.1341 151.971 35.1332 152.689C35.1421 153.397 34.9817 154.097 34.6517 154.787C34.3406 155.479 33.8527 156.123 33.1879 156.719C32.5132 157.325 31.8154 157.745 31.0946 157.98C30.3827 158.225 29.67 158.309 28.9566 158.233C28.253 158.148 27.5581 157.903 26.8719 157.498C26.1846 157.111 25.5425 156.585 24.9458 155.921C24.3402 155.246 23.8822 154.546 23.572 153.821C23.2518 153.105 23.0872 152.393 23.0782 151.684C23.0792 150.967 23.2352 150.262 23.5463 149.571C23.8663 148.89 24.3637 148.246 25.0384 147.641C25.7032 147.044 26.3915 146.623 27.1034 146.378C27.8341 146.134 28.5513 146.055 29.2548 146.14C29.9683 146.216 30.6637 146.452 31.3411 146.847C32.0283 147.234 32.6748 147.764 33.2805 148.439Z" fill="#3EA700"/>
<path d="M41.5897 172.208L42.1097 172.507C42.2599 172.593 42.4152 172.644 42.5756 172.66C42.7426 172.664 42.9156 172.617 43.0945 172.52C43.285 172.43 43.4823 172.274 43.6864 172.053C43.9021 171.839 44.1345 171.542 44.3838 171.162L48.2227 165.295L56.5427 170.084L51.3542 179.098L48.9275 177.701L53.4176 169.901L49.7776 167.806L46.7238 172.509C45.9942 173.643 45.2412 174.31 44.465 174.509C43.7003 174.715 42.8846 174.568 42.0179 174.07C41.7406 173.91 41.503 173.735 41.3051 173.544C41.1913 173.448 41.0866 173.349 40.991 173.248L41.5897 172.208Z" fill="#3EA700"/>
<path d="M70.6075 185.269C70.3381 186.507 70.9526 187.289 72.4508 187.615L75.1868 188.21L75.9949 184.497L73.2589 183.902C71.7606 183.576 70.8768 184.031 70.6075 185.269ZM76.2926 183.129C76.4967 182.191 76.3994 181.447 76.0008 180.896C75.6151 180.348 75.0314 179.989 74.2497 179.819C73.6635 179.691 73.0704 179.658 72.4704 179.718C71.8734 179.766 71.3207 179.891 70.8126 180.094L70.3838 178.773C70.7129 178.64 71.0624 178.539 71.4324 178.469C71.8153 178.402 72.1991 178.363 72.5838 178.351C72.9712 178.326 73.3465 178.326 73.7096 178.351C74.0858 178.378 74.4302 178.425 74.7429 178.494C75.5767 178.675 76.2915 178.933 76.8874 179.267C77.4832 179.602 77.963 179.999 78.3265 180.461C78.6901 180.922 78.9274 181.431 79.0383 181.987C79.165 182.533 79.1618 183.112 79.0285 183.724L77.625 190.174L72.1531 188.983C70.3813 188.597 69.13 188.045 68.3994 187.327C67.6819 186.611 67.4407 185.712 67.6761 184.631C67.9114 183.55 68.5041 182.833 69.4542 182.48C70.4173 182.13 71.7847 182.148 73.5566 182.534L76.2926 183.129Z" fill="#3EA700"/>
<path d="M111.885 192.507C112.264 192.38 112.553 192.087 112.752 191.628C112.963 191.164 112.99 190.614 112.834 189.977L110.308 179.857L120.934 176.319L124.883 188.178L126.496 187.641L127.981 192.101L125.704 192.859L124.314 189.949L114.067 193.361L114.698 196.524L112.421 197.282L110.936 192.823L111.885 192.507ZM115.491 189.093C115.575 189.43 115.59 189.748 115.535 190.048C115.48 190.347 115.398 190.606 115.288 190.825C115.166 191.091 115.012 191.325 114.826 191.527L122.132 189.095L118.657 178.658L113.343 180.427L115.491 189.093Z" fill="#3EA700"/>
<path d="M149.992 165.999L156.52 174.096L154.34 175.853L149.444 169.781L149.289 169.907L150.604 178.866L147.801 181.126L141.273 173.029L143.453 171.272L148.349 177.344L148.505 177.218L147.19 168.259L149.992 165.999Z" fill="#3EA700"/>
<path d="M165.152 151.006C165.387 150.65 165.656 150.317 165.958 150.005C166.249 149.686 166.556 149.402 166.881 149.153C167.202 148.885 167.532 148.664 167.871 148.489C168.218 148.303 168.556 148.166 168.885 148.08L169.445 149.409C168.798 149.637 168.223 149.928 167.717 150.281C167.219 150.623 166.79 151.067 166.43 151.612C166.165 152.012 165.989 152.423 165.902 152.845C165.804 153.26 165.818 153.685 165.946 154.121C166.062 154.549 166.295 154.983 166.644 155.422C167.001 155.849 167.491 156.269 168.113 156.681C168.736 157.093 169.314 157.379 169.847 157.54C170.388 157.689 170.887 157.732 171.346 157.667C171.793 157.595 172.201 157.425 172.569 157.157C172.934 156.871 173.26 156.511 173.547 156.078C173.908 155.533 174.148 154.964 174.267 154.372C174.394 153.769 174.436 153.125 174.393 152.441L175.835 152.436C175.885 152.772 175.892 153.136 175.856 153.528C175.828 153.909 175.759 154.303 175.65 154.711C175.537 155.099 175.39 155.49 175.211 155.883C175.042 156.283 174.84 156.661 174.605 157.017C174.083 157.806 173.499 158.459 172.854 158.976C172.227 159.489 171.568 159.844 170.878 160.043C170.176 160.234 169.451 160.266 168.703 160.14C167.963 160.002 167.215 159.683 166.459 159.183C165.714 158.691 165.133 158.131 164.716 157.504C164.296 156.858 164.038 156.184 163.943 155.482C163.837 154.772 163.889 154.04 164.101 153.285C164.302 152.522 164.652 151.763 165.152 151.006Z" fill="#3EA700"/>
<path d="M180.284 126.011L179.049 130.025L187.651 132.672L186.828 135.348L178.226 132.701L176.991 136.716L175.653 136.304L178.946 125.599L180.284 126.011Z" fill="#3EA700"/>
<path d="M190.085 111.267C191.352 111.278 191.991 110.516 192.004 108.983L192.027 106.183L188.227 106.151L188.204 108.951C188.191 110.485 188.818 111.257 190.085 111.267ZM186.827 106.14C185.867 106.132 185.159 106.379 184.701 106.882C184.244 107.372 184.012 108.017 184.005 108.817C184 109.417 184.089 110.004 184.271 110.579C184.439 111.154 184.675 111.669 184.978 112.125L183.772 112.815C183.574 112.52 183.404 112.198 183.26 111.85C183.116 111.489 182.999 111.122 182.909 110.747C182.806 110.373 182.729 110.006 182.678 109.646C182.628 109.272 182.604 108.925 182.607 108.605C182.614 107.752 182.72 106.999 182.926 106.347C183.131 105.696 183.422 105.145 183.799 104.695C184.176 104.244 184.626 103.908 185.148 103.686C185.656 103.45 186.224 103.335 186.851 103.34L193.45 103.395L193.404 108.995C193.389 110.808 193.104 112.145 192.551 113.008C191.997 113.856 191.167 114.276 190.06 114.267C188.953 114.258 188.13 113.824 187.591 112.966C187.051 112.095 186.789 110.753 186.804 108.94L186.827 106.14Z" fill="#3EA700"/>
<path d="M180.205 77.8778L190.127 74.7626L190.966 77.4341L186.577 78.8119L188.194 83.964L192.583 82.5861L193.422 85.2576L183.499 88.3727L182.661 85.7013L186.859 84.3833L185.241 79.2313L181.043 80.5492L180.205 77.8778Z" fill="#3EA700"/>
<path d="M184.183 56.6023L175.78 62.7302L174.131 60.4679L181.402 55.1649L178.456 51.1251L171.184 56.4281L169.535 54.1657L176.806 48.8627L175.805 47.4892L179.36 44.8966L180.715 46.7549L178.527 48.8458L184.183 56.6023Z" fill="#3EA700"/>
<path d="M150.406 33.7562L156.405 25.2606L158.692 26.8756L154.193 33.2473L154.356 33.3627L162.613 29.6443L165.554 31.7207L159.555 40.2163L157.268 38.6013L161.767 32.2296L161.603 32.1142L153.347 35.8327L150.406 33.7562Z" fill="#3EA700"/>
<path d="M141.104 14.8268L137.397 17.7139C138.178 18.2089 138.686 18.7726 138.922 19.4048C139.154 20.0497 139.155 20.7413 138.925 21.4796C138.611 22.4852 137.996 23.1592 137.079 23.5018C136.145 23.8531 134.864 23.7747 133.235 23.2666L127.698 21.5398L130.794 11.6114L133.467 12.445L132.395 15.8818L134.572 16.5606L138.049 13.8741L141.104 14.8268ZM131.978 17.2183L130.787 21.0369L133.651 21.9301C134.224 22.1087 134.721 22.0822 135.143 21.8504C135.56 21.6315 135.866 21.2101 136.061 20.5864C136.255 19.9627 136.245 19.4358 136.03 19.0056C135.811 18.5881 135.415 18.2901 134.842 18.1114L131.978 17.2183Z" fill="#3EA700"/>
</svg>
