<svg width="18" height="23" viewBox="0 0 18 23" fill="none" xmlns="http://www.w3.org/2000/svg">
<path d="M2.64 16.36C1.38021 15.1018 0.521932 13.4981 0.173757 11.752C-0.174418 10.0059 0.00315779 8.1957 0.684017 6.55052C1.36488 4.90533 2.51842 3.49906 3.99871 2.50963C5.47899 1.5202 7.21949 0.992081 9 0.992081C10.7805 0.992081 12.521 1.5202 14.0013 2.50963C15.4816 3.49906 16.6351 4.90533 17.316 6.55052C17.9968 8.1957 18.1744 10.0059 17.8263 11.752C17.4781 13.4981 16.6198 15.1018 15.36 16.36L9.71 22.02C9.61704 22.1137 9.50644 22.1881 9.38458 22.2389C9.26272 22.2897 9.13202 22.3158 9 22.3158C8.86799 22.3158 8.73729 22.2897 8.61543 22.2389C8.49357 22.1881 8.38297 22.1137 8.29 22.02L2.64 16.36ZM13.95 14.95C14.9289 13.971 15.5955 12.7237 15.8656 11.3659C16.1356 10.008 15.9969 8.6006 15.4671 7.32156C14.9373 6.04252 14.04 4.94931 12.8889 4.18017C11.7378 3.41103 10.3844 3.00051 9 3.00051C7.61557 3.00051 6.26222 3.41103 5.11109 4.18017C3.95996 4.94931 3.06275 6.04252 2.53292 7.32156C2.00308 8.6006 1.86442 10.008 2.13445 11.3659C2.40449 12.7237 3.07111 13.971 4.05 14.95L9 19.9L13.95 14.95ZM9 14C7.93914 14 6.92172 13.5786 6.17158 12.8284C5.42143 12.0783 5 11.0609 5 10C5 8.93913 5.42143 7.92172 6.17158 7.17157C6.92172 6.42143 7.93914 6 9 6C10.0609 6 11.0783 6.42143 11.8284 7.17157C12.5786 7.92172 13 8.93913 13 10C13 11.0609 12.5786 12.0783 11.8284 12.8284C11.0783 13.5786 10.0609 14 9 14ZM9 12C9.53044 12 10.0391 11.7893 10.4142 11.4142C10.7893 11.0391 11 10.5304 11 10C11 9.46957 10.7893 8.96086 10.4142 8.58579C10.0391 8.21071 9.53044 8 9 8C8.46957 8 7.96086 8.21071 7.58579 8.58579C7.21072 8.96086 7 9.46957 7 10C7 10.5304 7.21072 11.0391 7.58579 11.4142C7.96086 11.7893 8.46957 12 9 12Z" fill="#3EA700"/>
</svg>
