<svg width="50" height="50" viewBox="0 0 50 50" fill="none" xmlns="http://www.w3.org/2000/svg">
<g clip-path="url(#clip0)">
<path d="M49.9081 11.8567C49.736 11.2168 49.3161 10.6712 48.7417 10.3405C48.1668 10.0081 47.4833 9.91818 46.8422 10.0903C46.2018 10.2628 45.6563 10.6822 45.3255 11.2567L44.9089 11.9816C44.5131 11.7542 44.0074 11.8881 43.7759 12.2819L41.6595 15.8892L40.9346 15.4726C40.7425 15.3616 40.5139 15.3315 40.2999 15.3892C40.0855 15.4474 39.9033 15.5882 39.793 15.781C39.5672 16.1793 39.7047 16.6854 40.1014 16.9141L40.8264 17.3307L33.7442 29.6035L31.9944 34.278L31.1613 35.8358C30.6735 36.6844 30.7255 37.7394 31.2947 38.5355L29.42 40.8349L28.8952 39.5188C28.6584 38.9322 28.1104 38.5302 27.4802 38.481C26.8497 38.4314 26.2455 38.743 25.9204 39.2853L25.6206 39.7935L25.3375 36.4607C25.2724 35.6722 24.6617 35.0384 23.8765 34.9432C23.0909 34.8484 22.3472 35.3191 22.0962 36.0693L20.0466 42.2182C19.9034 42.6531 20.1377 43.1217 20.5714 43.2682C20.6528 43.306 20.7403 43.3288 20.8298 43.3345C21.1878 43.3357 21.5067 43.1075 21.6215 42.7682L23.6625 36.6194L23.9542 40.0018C24.0144 40.7235 24.5332 41.3235 25.2386 41.4871C25.944 41.6506 26.6739 41.3398 27.0453 40.7186L27.3537 40.21L27.8704 41.5184C28.0897 42.0697 28.5856 42.4631 29.1727 42.5506C29.7597 42.638 30.3488 42.4065 30.7198 41.9432L32.6612 39.4855C32.876 39.5416 33.0974 39.5697 33.3195 39.5689C34.2125 39.5758 35.0416 39.1055 35.494 38.3354L36.3272 36.944L39.5017 33.0864L46.6587 20.6634L47.3837 21.08C47.5769 21.1907 47.7177 21.3733 47.775 21.5886C47.8328 21.8021 47.8027 22.03 47.692 22.2216L44.3593 27.9957C44.2336 28.1853 44.1909 28.418 44.2413 28.6402C44.2917 28.8619 44.4305 29.0535 44.6258 29.1703C44.8178 29.2817 45.0464 29.3118 45.2604 29.2541C45.4748 29.1959 45.6571 29.0551 45.7673 28.8623L49.1001 23.0881C49.4325 22.5133 49.5224 21.8298 49.3499 21.1886C49.1774 20.5483 48.7579 20.0027 48.1835 19.672L47.4585 19.2554L49.5415 15.6476C49.7689 15.2517 49.6351 14.7465 49.2417 14.5146L49.6583 13.7896C49.9996 13.2058 50.0899 12.5085 49.9081 11.8567ZM46.7669 12.0898C46.8772 11.897 47.0602 11.7558 47.2755 11.6985C47.4894 11.6456 47.7156 11.6753 47.9085 11.7819C48.1017 11.8921 48.2425 12.0752 48.3003 12.29C48.3531 12.504 48.3235 12.7302 48.2169 12.923L47.8003 13.648L46.3503 12.8148L46.7669 12.0898ZM35.4106 35.3529L33.7609 34.3944L34.944 31.2284L37.5684 32.7447L35.4106 35.3529ZM32.911 37.7605C32.5591 37.5152 32.4509 37.0433 32.6612 36.669L33.0778 35.9444L34.5274 36.7776L34.1108 37.494C33.994 37.6966 33.7979 37.8407 33.5697 37.8915C33.3415 37.942 33.1027 37.8948 32.911 37.7605ZM38.5184 31.3785L35.6356 29.7122L42.3011 18.1638L45.1839 19.8302L38.5184 31.3785ZM46.0171 18.3888L43.1343 16.7224L44.8007 13.8396L47.6835 15.506L46.0171 18.3888Z" fill="#3EA700"/>
<path d="M13.1476 37.3438L10.1985 40.2851L8.432 38.5187C8.10694 38.1957 7.58213 38.1957 7.25707 38.5187C7.09922 38.6753 7.01053 38.8881 7.01053 39.1102C7.01053 39.3323 7.09922 39.5455 7.25707 39.7017L9.02353 41.4682C9.33598 41.7782 9.75827 41.9519 10.1985 41.9515C10.6411 41.954 11.067 41.7802 11.3815 41.4682L14.3225 38.5187C14.6057 38.1879 14.5865 37.6953 14.279 37.3877C13.971 37.0797 13.4783 37.0606 13.1476 37.3438Z" fill="#3EA700"/>
<path d="M3.33275 39.5851C3.33275 43.4968 6.50359 46.6673 10.4149 46.6673C14.3262 46.6673 17.497 43.4968 17.497 39.5851C17.497 39.125 17.1239 38.7519 16.6638 38.7519C16.2037 38.7519 15.8306 39.125 15.8306 39.5851C15.8306 42.5762 13.4059 45.0009 10.4149 45.0009C7.42385 45.0009 4.99913 42.5762 4.99913 39.5851C4.99913 36.5941 7.42385 34.1694 10.4149 34.1694C11.5874 34.1661 12.7285 34.5465 13.6642 35.2528C14.0324 35.529 14.5548 35.4542 14.8306 35.086C15.1069 34.7178 15.0324 34.1958 14.6642 33.9196C12.5182 32.3102 9.64678 32.0514 7.24769 33.2508C4.8482 34.4505 3.33275 36.9029 3.33275 39.5851Z" fill="#3EA700"/>
<path d="M29.9949 6.67394C30.455 6.67394 30.8281 6.30128 30.8281 5.84075C30.8281 5.38062 30.455 5.00756 29.9949 5.00756H8.33191C7.87179 5.00756 7.49872 5.38062 7.49872 5.84075V9.17352C7.49872 9.63405 7.87179 10.0067 8.33191 10.0067H29.9949C30.455 10.0067 30.8281 9.63405 30.8281 9.17352C30.8281 8.71339 30.455 8.34032 29.9949 8.34032H9.16511V6.67394H29.9949Z" fill="#3EA700"/>
<path d="M10.8315 11.6729C10.3714 11.6729 9.9983 12.046 9.9983 12.5061C9.9983 12.9667 10.3714 13.3393 10.8315 13.3393H27.4953C27.9555 13.3393 28.3285 12.9667 28.3285 12.5061C28.3285 12.046 27.9555 11.6729 27.4953 11.6729H10.8315Z" fill="#3EA700"/>
<path d="M32.4945 17.5055H14.1642C13.7041 17.5055 13.3311 17.8785 13.3311 18.3387C13.3311 18.7992 13.7041 19.1719 14.1642 19.1719H32.4945C32.9546 19.1719 33.3276 18.7992 33.3276 18.3387C33.3276 17.8785 32.9546 17.5055 32.4945 17.5055Z" fill="#3EA700"/>
<path d="M24.1625 23.3379C24.1625 22.8778 23.7895 22.5048 23.3293 22.5048H6.66552C6.20539 22.5048 5.83232 22.8778 5.83232 23.3379C5.83232 23.7985 6.20539 24.1711 6.66552 24.1711H23.3293C23.7895 24.1711 24.1625 23.7985 24.1625 23.3379Z" fill="#3EA700"/>
<path d="M32.4945 22.5048H26.6621C26.202 22.5048 25.8289 22.8778 25.8289 23.3379C25.8289 23.7985 26.202 24.1711 26.6621 24.1711H32.4945C32.9546 24.1711 33.3276 23.7985 33.3276 23.3379C33.3276 22.8778 32.9546 22.5048 32.4945 22.5048Z" fill="#3EA700"/>
<path d="M14.9974 28.3371C15.4576 28.3371 15.8306 27.9644 15.8306 27.5039C15.8306 27.0438 15.4576 26.6707 14.9974 26.6707H6.66552C6.20539 26.6707 5.83232 27.0438 5.83232 27.5039C5.83232 27.9644 6.20539 28.3371 6.66552 28.3371H14.9974Z" fill="#3EA700"/>
<path d="M18.3302 28.3371H24.1626C24.6227 28.3371 24.9957 27.9644 24.9957 27.5039C24.9957 27.0438 24.6227 26.6707 24.1626 26.6707H18.3302C17.8701 26.6707 17.497 27.0438 17.497 27.5039C17.497 27.9644 17.8701 28.3371 18.3302 28.3371Z" fill="#3EA700"/>
<path d="M37.4936 38.3351C37.0335 38.3351 36.6604 38.7082 36.6604 39.1683V47.5002C36.6604 47.9607 36.2874 48.3334 35.8272 48.3334H2.49957C2.03945 48.3334 1.66638 47.9607 1.66638 47.5002V2.50788C1.66638 2.04775 2.03945 1.67468 2.49957 1.67468H35.8272C36.2874 1.67468 36.6604 2.04775 36.6604 2.50788V18.1554C36.6604 18.6156 37.0335 18.9886 37.4936 18.9886C37.9537 18.9886 38.3268 18.6156 38.3268 18.1554V2.50788C38.3268 1.1275 37.2076 0.00830078 35.8272 0.00830078H2.49957C1.11919 0.00830078 0 1.1275 0 2.50788V47.5002C0 48.881 1.11919 49.9998 2.49957 49.9998H35.8272C37.2076 49.9998 38.3268 48.881 38.3268 47.5002V39.1683C38.3268 38.7082 37.9537 38.3351 37.4936 38.3351Z" fill="#3EA700"/>
</g>
<defs>
<clipPath id="clip0">
<rect width="50" height="50" fill="white"/>
</clipPath>
</defs>
</svg>
