<svg width="18" height="18" viewBox="0 0 18 18" fill="none" xmlns="http://www.w3.org/2000/svg">
<path d="M9.86666 11.2417L10.7583 9.45834C10.848 9.28111 10.998 9.14173 11.1814 9.06534C11.3647 8.98894 11.5693 8.98055 11.7583 9.04167L16.7583 10.7083C16.9254 10.7628 17.071 10.8687 17.1742 11.0109C17.2775 11.1531 17.3332 11.3243 17.3333 11.5V15.6667C17.3333 16.1087 17.1577 16.5326 16.8452 16.8452C16.5326 17.1577 16.1087 17.3333 15.6667 17.3333H14C10.4638 17.3333 7.07238 15.9286 4.5719 13.4281C2.07141 10.9276 0.666656 7.53623 0.666656 4.00001V2.33334C0.666656 1.41667 1.41666 0.666675 2.33332 0.666675H6.49999C6.67469 0.666224 6.84512 0.72069 6.98718 0.822376C7.12924 0.924062 7.23575 1.06782 7.29166 1.23334L8.95832 6.23334C9.0217 6.42343 9.01446 6.62999 8.93794 6.81517C8.86142 7.00036 8.72073 7.15177 8.54166 7.24167L6.74999 8.13334C7.49085 9.42773 8.56393 10.5008 9.85832 11.2417H9.86666ZM5.89999 2.33334H2.33332V4.00001C2.33332 7.0942 3.56249 10.0617 5.75041 12.2496C7.93833 14.4375 10.9058 15.6667 14 15.6667H15.6667V12.1L11.9167 10.85L10.9833 12.7333C10.8865 12.9241 10.72 13.0702 10.5183 13.1416C10.3166 13.213 10.0953 13.204 9.89999 13.1167C7.67408 12.1132 5.89045 10.3326 4.88332 8.10834C4.79596 7.91308 4.78704 7.69169 4.85839 7.49003C4.92975 7.28837 5.07593 7.12187 5.26666 7.02501L7.14999 6.07501L5.89999 2.33334Z" fill="white"/>
</svg>
