<svg width="50" height="50" viewBox="0 0 50 50" fill="none" xmlns="http://www.w3.org/2000/svg">
<path d="M48.291 8.1543H12.3258C11.9212 8.1543 11.5934 8.48223 11.5934 8.88672C11.5934 9.29121 11.9212 9.61914 12.3258 9.61914H48.291C48.4257 9.61914 48.5352 9.72871 48.5352 9.86328V40.1367C48.5352 40.2713 48.4257 40.3809 48.291 40.3809H42.3067C41.9021 40.3809 41.5743 40.7088 41.5743 41.1133C41.5743 41.5178 41.9021 41.8457 42.3067 41.8457H48.291C49.2333 41.8457 50 41.079 50 40.1367V9.86328C50 8.921 49.2333 8.1543 48.291 8.1543Z" fill="#3EA700"/>
<path d="M38.8888 40.3809H1.70898C1.57432 40.3809 1.46484 40.2713 1.46484 40.1367V9.86328C1.46484 9.72871 1.57432 9.61914 1.70898 9.61914H8.90781C9.3124 9.61914 9.64023 9.29121 9.64023 8.88672C9.64023 8.48223 9.3124 8.1543 8.90781 8.1543H1.70898C0.766699 8.1543 0 8.921 0 9.86328V40.1367C0 41.079 0.766699 41.8457 1.70898 41.8457H38.8888C39.2934 41.8457 39.6212 41.5178 39.6212 41.1133C39.6212 40.7088 39.2933 40.3809 38.8888 40.3809Z" fill="#3EA700"/>
<path d="M17.3223 13.518C16.4033 12.6001 15.0556 12.0957 13.5249 12.0957C13.5137 12.0957 13.5023 12.0957 13.4909 12.0958C11.5013 12.1043 9.60223 12.9741 8.53456 14.3664C8.41961 14.5165 8.24725 14.6026 8.06141 14.6026H7.46483C5.71415 14.6026 4.28993 16.0273 4.28993 17.7784V21.8465C3.87352 22.1831 3.60633 22.6975 3.60633 23.2735V23.8614C3.60633 24.8727 4.42909 25.6954 5.44032 25.6954H6.60946C6.83905 26.8614 7.54276 27.8586 8.51063 28.4787V29.9718H6.21288C5.03954 29.9718 4.08495 30.9264 4.08495 32.0997V37.0899C4.08495 37.6554 4.54491 38.1153 5.11034 38.1153H16.8271C17.3926 38.1153 17.8525 37.6554 17.8525 37.0899V32.0997C17.8525 30.9264 16.8979 29.9718 15.7246 29.9718H13.4267V28.4786C14.3946 27.8586 15.0982 26.8614 15.3278 25.6954H16.497C17.5082 25.6954 18.3309 24.8727 18.3309 23.8614V23.2735C18.3309 22.7691 18.1263 22.3116 17.7959 21.9796V18.1376C18.8001 16.7782 18.5977 14.7948 17.3223 13.518ZM7.46483 16.0675H8.06141C8.69745 16.0675 9.30897 15.7645 9.69725 15.2573C10.4827 14.2331 11.9742 13.5671 13.4975 13.5607C14.6316 13.5532 15.6492 13.9174 16.2865 14.5539C17.042 15.3103 17.1857 16.5044 16.6116 17.2754C16.428 17.5243 16.331 17.8168 16.331 18.1212V21.4386H15.4092V19.6161C15.4092 19.3092 15.2756 19.0188 15.0427 18.8192C14.8101 18.6201 14.503 18.533 14.201 18.5799C12.7752 18.8017 10.6017 18.4354 9.19149 17.9587C9.03378 17.9054 8.86278 17.9074 8.70624 17.9644C7.4035 18.4389 6.52821 19.6891 6.52821 21.0753V21.4384H5.75477V17.7782C5.75487 16.835 6.52196 16.0675 7.46483 16.0675ZM11.1201 27.6898H10.8173C9.26005 27.6898 7.99305 26.4228 7.99305 24.8655V21.0755C7.99305 20.3812 8.3869 19.7481 8.99364 19.4347C10.4179 19.879 12.3653 20.2152 13.9442 20.0841V24.8655C13.9443 26.4228 12.6773 27.6898 11.1201 27.6898ZM5.07128 23.8614V23.2735C5.07128 23.0694 5.2369 22.9034 5.44042 22.9034H6.52831V24.2306H5.44042C5.2369 24.2306 5.07128 24.0649 5.07128 23.8614ZM16.3877 32.0997V36.6505H5.54979V32.0997C5.54979 31.7341 5.84725 31.4366 6.21288 31.4366H8.59774C8.68983 31.6725 8.85184 31.8796 9.06883 32.0274L10.255 32.8306C10.4722 32.9788 10.7209 33.0527 10.9694 33.0527C11.2172 33.0527 11.4647 32.9791 11.6802 32.8321L12.8707 32.026C13.0863 31.8789 13.2478 31.6722 13.3397 31.4365H15.7244C16.0902 31.4366 16.3877 31.7341 16.3877 32.0997ZM11.9619 30.8724L10.9687 31.5448L9.97557 30.8724V29.0711C10.2478 29.1255 10.5292 29.1545 10.8173 29.1545H11.1201C11.4082 29.1545 11.6896 29.1255 11.9619 29.0711V30.8724ZM16.8662 23.8614C16.8662 24.0649 16.7006 24.2306 16.4971 24.2306H15.4092V22.9034H16.4971C16.7006 22.9034 16.8662 23.0694 16.8662 23.2735V23.8614Z" fill="#3EA700"/>
<path d="M24.7323 16.8791H44.7254C45.3985 16.8791 45.9461 16.3315 45.9461 15.6584V12.7187C45.9461 12.0455 45.3985 11.498 44.7254 11.498H24.7323C24.0592 11.498 23.5116 12.0455 23.5116 12.7187V15.6584C23.5116 16.3314 24.0592 16.8791 24.7323 16.8791ZM24.9764 12.9628H44.4812V15.4143H24.9764V12.9628Z" fill="#3EA700"/>
<path d="M24.244 21.7135H35.3525C35.7571 21.7135 36.0849 21.3856 36.0849 20.9811C36.0849 20.5766 35.7571 20.2487 35.3525 20.2487H24.244C23.8394 20.2487 23.5116 20.5766 23.5116 20.9811C23.5116 21.3856 23.8394 21.7135 24.244 21.7135Z" fill="#3EA700"/>
<path d="M24.244 25.4936H35.3525C35.7571 25.4936 36.0849 25.1656 36.0849 24.7612C36.0849 24.3567 35.7571 24.0287 35.3525 24.0287H24.244C23.8394 24.0287 23.5116 24.3567 23.5116 24.7612C23.5116 25.1656 23.8394 25.4936 24.244 25.4936Z" fill="#3EA700"/>
<path d="M45.9461 32.7663C45.9461 29.8297 43.5562 27.418 40.5975 27.418C37.6436 27.418 35.2492 29.825 35.2492 32.7663C35.2492 35.7155 37.6484 38.1148 40.5975 38.1148C43.5467 38.1148 45.9461 35.7155 45.9461 32.7663ZM40.5976 28.8828C41.9821 28.8828 43.199 29.6116 43.8868 30.7051L42.1083 31.5222C41.711 31.1548 41.1802 30.9298 40.5977 30.9298C40.0152 30.9298 39.4844 31.1549 39.0872 31.5223L37.3087 30.7052C37.9964 29.6115 39.2132 28.8828 40.5976 28.8828ZM40.5976 33.9194C40.1773 33.9194 39.8353 33.5773 39.8353 33.1568C39.8353 32.7364 40.1773 32.3944 40.5977 32.3944C41.0181 32.3944 41.3601 32.7364 41.3601 33.1568C41.36 33.5773 41.0179 33.9194 40.5976 33.9194ZM36.7773 32.073L38.3964 32.8168C38.3793 32.9277 38.3704 33.0412 38.3704 33.1568C38.3704 34.1284 38.9959 34.9562 39.8651 35.2599V36.5797C37.819 36.1875 36.3909 34.2086 36.7773 32.073ZM41.3301 36.5798V35.26C42.1994 34.9563 42.825 34.1285 42.825 33.1568C42.825 33.0412 42.8161 32.9276 42.799 32.8167L44.418 32.0729C44.8045 34.207 43.3774 36.1873 41.3301 36.5798Z" fill="#3EA700"/>
</svg>
