<svg width="50" height="50" viewBox="0 0 50 50" fill="none" xmlns="http://www.w3.org/2000/svg">
<path d="M40.6565 11.7423C40.2521 11.7423 39.9241 12.0702 39.9241 12.4747V45.3538C39.9241 45.3816 39.9016 45.4042 39.8737 45.4042H14.0405C13.636 45.4042 13.3081 45.7321 13.3081 46.1366C13.3081 46.5411 13.636 46.8691 14.0405 46.8691H39.8737C40.7093 46.8691 41.389 46.1894 41.389 45.3538V12.4747C41.389 12.0702 41.061 11.7423 40.6565 11.7423Z" fill="#3EA700"/>
<path d="M43.005 3.13126H36.2629L33.8048 0.673146C33.3707 0.239063 32.7936 0 32.1798 0H6.99494C6.15939 0 5.47971 0.679689 5.47971 1.51524V45.3535C5.47971 46.1891 6.15939 46.8687 6.99494 46.8687H8.61096V48.4848C8.61096 49.3203 9.29065 50 10.1262 50H43.005C43.8405 50 44.5202 49.3203 44.5202 48.4848V4.64659C44.5202 3.81104 43.8405 3.13126 43.005 3.13126ZM32.7778 1.71778L39.6711 8.61105H32.8282C32.8004 8.61105 32.7778 8.58849 32.7778 8.56066V1.71778ZM43.0554 48.4849C43.0554 48.5127 43.0328 48.5353 43.005 48.5353H10.1262C10.0984 48.5353 10.0758 48.5127 10.0758 48.4849V46.8688H10.9088C11.3133 46.8688 11.6412 46.5409 11.6412 46.1364C11.6412 45.7319 11.3133 45.404 10.9088 45.404H6.99494C6.96711 45.404 6.94455 45.3814 6.94455 45.3536V1.51524C6.94455 1.48741 6.96711 1.46485 6.99494 1.46485H31.313V8.56066C31.313 9.39621 31.9926 10.0759 32.8282 10.0759H40.6565C41.061 10.0759 41.389 9.74797 41.389 9.34348V9.2092C41.389 8.59543 41.1499 8.01828 40.7158 7.5842L37.7277 4.5961H43.005C43.0328 4.5961 43.0554 4.61866 43.0554 4.64649V48.4849Z" fill="#3EA700"/>
<path d="M20.038 8.36696C19.752 8.08092 19.2882 8.08092 19.0023 8.36696L14.8588 12.5104C14.8391 12.53 14.8072 12.53 14.7875 12.5104L13.1358 10.8587H14.4073C14.8118 10.8587 15.1397 10.5307 15.1397 10.1262C15.1397 9.72174 14.8118 9.39381 14.4073 9.39381H12.4746C12.2405 9.39381 12.0194 9.44879 11.8211 9.54411L11.4269 9.14987C11.1409 8.86383 10.6771 8.86383 10.3911 9.14987C10.1051 9.4359 10.1051 9.89967 10.3911 10.1856L10.9669 10.7614C10.9622 10.8099 10.9595 10.8591 10.9595 10.909V15.6059C10.9595 16.4415 11.6392 17.1212 12.4747 17.1212H17.1717C18.0073 17.1212 18.687 16.4415 18.687 15.6059V10.7538L20.038 9.4027C20.3241 9.11666 20.3241 8.65289 20.038 8.36696ZM17.2221 15.606C17.2221 15.6339 17.1996 15.6564 17.1717 15.6564H12.4747C12.4469 15.6564 12.4244 15.6339 12.4244 15.606V12.2186L13.7518 13.5461C14.0472 13.8415 14.4352 13.9892 14.8233 13.9892C15.2113 13.9892 15.5993 13.8415 15.8947 13.5461L17.2221 12.2186V15.606Z" fill="#3EA700"/>
<path d="M17.1717 19.5708H12.4747C11.6392 19.5708 10.9595 20.2505 10.9595 21.086V25.783C10.9595 26.6185 11.6392 27.2982 12.4747 27.2982H17.1717C18.0073 27.2982 18.687 26.6185 18.687 25.783V21.086C18.687 20.2506 18.0073 19.5708 17.1717 19.5708ZM17.2221 25.783C17.2221 25.8108 17.1996 25.8334 17.1717 25.8334H12.4747C12.4469 25.8334 12.4243 25.8108 12.4243 25.783V21.086C12.4243 21.0582 12.4469 21.0356 12.4747 21.0356H17.1717C17.1996 21.0356 17.2221 21.0582 17.2221 21.086V25.783Z" fill="#3EA700"/>
<path d="M17.1717 29.7476H12.4747C11.6392 29.7476 10.9595 30.4273 10.9595 31.2629V35.9598C10.9595 36.7954 11.6392 37.4751 12.4747 37.4751H17.1717C18.0073 37.4751 18.687 36.7953 18.687 35.9598V31.2629C18.687 30.4273 18.0073 29.7476 17.1717 29.7476ZM17.2221 35.9598C17.2221 35.9877 17.1996 36.0102 17.1717 36.0102H12.4747C12.4469 36.0102 12.4243 35.9876 12.4243 35.9598V31.2629C12.4243 31.235 12.4469 31.2125 12.4747 31.2125H17.1717C17.1996 31.2125 17.2221 31.235 17.2221 31.2629V35.9598Z" fill="#3EA700"/>
<path d="M28.9141 10.9595H21.8687C21.4642 10.9595 21.1363 11.2875 21.1363 11.6919C21.1363 12.0964 21.4641 12.4244 21.8687 12.4244H28.9141C29.3186 12.4244 29.6466 12.0964 29.6466 11.6919C29.6466 11.2875 29.3186 10.9595 28.9141 10.9595Z" fill="#3EA700"/>
<path d="M35.1767 14.0909H21.8687C21.4642 14.0909 21.1363 14.4189 21.1363 14.8234C21.1363 15.2278 21.4641 15.5558 21.8687 15.5558H35.1767C35.5812 15.5558 35.9092 15.2278 35.9092 14.8234C35.9092 14.4189 35.5813 14.0909 35.1767 14.0909Z" fill="#3EA700"/>
<path d="M28.9141 21.1363H21.8687C21.4642 21.1363 21.1363 21.4643 21.1363 21.8688C21.1363 22.2733 21.4641 22.6012 21.8687 22.6012H28.9141C29.3186 22.6012 29.6466 22.2733 29.6466 21.8688C29.6466 21.4643 29.3186 21.1363 28.9141 21.1363Z" fill="#3EA700"/>
<path d="M35.1767 24.2676H21.8687C21.4642 24.2676 21.1363 24.5956 21.1363 25C21.1363 25.4045 21.4641 25.7325 21.8687 25.7325H35.1767C35.5812 25.7325 35.9092 25.4045 35.9092 25C35.9092 24.5956 35.5813 24.2676 35.1767 24.2676Z" fill="#3EA700"/>
<path d="M28.9141 31.313H21.8687C21.4642 31.313 21.1363 31.641 21.1363 32.0454C21.1363 32.4499 21.4641 32.7779 21.8687 32.7779H28.9141C29.3186 32.7779 29.6466 32.4499 29.6466 32.0454C29.6466 31.641 29.3186 31.313 28.9141 31.313Z" fill="#3EA700"/>
<path d="M35.1767 34.4443H21.8687C21.4642 34.4443 21.1363 34.7723 21.1363 35.1768C21.1363 35.5812 21.4641 35.9092 21.8687 35.9092H35.1767C35.5812 35.9092 35.9092 35.5812 35.9092 35.1768C35.9092 34.7723 35.5813 34.4443 35.1767 34.4443Z" fill="#3EA700"/>
</svg>
