<svg width="32" height="32" viewBox="0 0 32 32" fill="none" xmlns="http://www.w3.org/2000/svg">
<path d="M16 0.636719C11.8285 0.636719 11.3054 0.6544 9.66708 0.729151C8.03219 0.80378 6.91562 1.0634 5.93855 1.44313C4.9285 1.83566 4.07191 2.36087 3.21801 3.21477C2.3641 4.06868 1.8389 4.92526 1.44636 5.93532C1.06663 6.91232 0.807015 8.02889 0.732386 9.66378C0.657635 11.3021 0.640015 11.8252 0.640015 15.9967C0.640015 20.1682 0.657635 20.6913 0.732386 22.3296C0.807015 23.9644 1.06663 25.081 1.44636 26.058C1.8389 27.0681 2.3641 27.9247 3.21801 28.7786C4.07191 29.6325 4.9285 30.1577 5.93855 30.5503C6.91562 30.9299 8.03219 31.1896 9.66708 31.2642C11.3054 31.3389 11.8285 31.3566 16 31.3566C20.1715 31.3566 20.6945 31.3389 22.3328 31.2642C23.9677 31.1896 25.0843 30.9299 26.0613 30.5503C27.0714 30.1577 27.9279 29.6325 28.7819 28.7786C29.6358 27.9247 30.161 27.0681 30.5536 26.058C30.9332 25.081 31.1929 23.9644 31.2675 22.3296C31.3422 20.6913 31.3599 20.1682 31.3599 15.9967C31.3599 11.8252 31.3422 11.3021 31.2675 9.66378C31.1929 8.02889 30.9332 6.91232 30.5536 5.93532C30.161 4.92526 29.6358 4.06868 28.7819 3.21477C27.9279 2.36087 27.0714 1.83566 26.0613 1.44313C25.0843 1.0634 23.9677 0.80378 22.3328 0.729151C20.6945 0.6544 20.1715 0.636719 16 0.636719ZM16 3.40433C20.1012 3.40433 20.5871 3.41994 22.2067 3.49384C23.7043 3.56219 24.5176 3.81241 25.0588 4.0227C25.7758 4.30134 26.2875 4.63425 26.8249 5.17171C27.3624 5.70917 27.6953 6.22091 27.9739 6.93781C28.1843 7.47905 28.4345 8.29235 28.5028 9.78993C28.5767 11.4096 28.5924 11.8954 28.5924 15.9967C28.5924 20.0979 28.5767 20.5838 28.5028 22.2034C28.4345 23.701 28.1843 24.5143 27.9739 25.0555C27.6953 25.7725 27.3624 26.2842 26.8249 26.8216C26.2875 27.3591 25.7758 27.692 25.0588 27.9706C24.5176 28.181 23.7043 28.4312 22.2067 28.4995C20.5873 28.5734 20.1015 28.5891 16 28.5891C11.8984 28.5891 11.4127 28.5734 9.79323 28.4995C8.29565 28.4312 7.48235 28.181 6.9411 27.9706C6.22414 27.692 5.71247 27.3591 5.17495 26.8216C4.63748 26.2842 4.30458 25.7725 4.026 25.0555C3.81565 24.5143 3.56542 23.701 3.49707 22.2034C3.42318 20.5838 3.40757 20.0979 3.40757 15.9967C3.40757 11.8954 3.42318 11.4096 3.49707 9.78993C3.56542 8.29235 3.81565 7.47905 4.026 6.93781C4.30458 6.22091 4.63748 5.70917 5.17495 5.17171C5.71247 4.63425 6.22414 4.30134 6.9411 4.0227C7.48235 3.81241 8.29565 3.56219 9.79323 3.49384C11.4129 3.41994 11.8987 3.40433 16 3.40433Z" fill="#929292"/>
<path d="M15.9999 21.1321C13.1722 21.1321 10.8799 18.8398 10.8799 16.0121C10.8799 13.1844 13.1722 10.8921 15.9999 10.8921C18.8276 10.8921 21.1199 13.1844 21.1199 16.0121C21.1199 18.8398 18.8276 21.1321 15.9999 21.1321ZM15.9999 8.12456C11.6437 8.12456 8.11237 11.6559 8.11237 16.0121C8.11237 20.3683 11.6437 23.8996 15.9999 23.8996C20.3561 23.8996 23.8874 20.3683 23.8874 16.0121C23.8874 11.6559 20.3561 8.12456 15.9999 8.12456Z" fill="#929292"/>
<path d="M26.0425 7.78873C26.0425 8.80671 25.2173 9.6319 24.1993 9.6319C23.1814 9.6319 22.3561 8.80671 22.3561 7.78873C22.3561 6.77075 23.1814 5.94556 24.1993 5.94556C25.2173 5.94556 26.0425 6.77075 26.0425 7.78873Z" fill="#929292"/>
</svg>
