<svg width="18" height="14" viewBox="0 0 18 14" fill="none" xmlns="http://www.w3.org/2000/svg">
<path d="M11.9179 0.0229797L9 9.2222L6.08225 0.0229797C2.61132 1.21601 0 4.45236 0 8.16262C0 10.3974 0.911691 12.4582 2.38663 13.977H6.61698L7.06047 12.0538C2.00663 10.0736 2.96223 3.93759 4.79436 2.93598C5.01183 3.00137 8.19856 13.9318 8.19856 13.9318C8.24209 13.9318 8.38352 13.9318 8.55632 13.9318C8.59282 13.9318 8.73026 13.9318 8.90153 13.9318C8.9635 13.9318 9.03041 13.9318 9.09828 13.9318C9.21462 13.9318 9.33533 13.9318 9.4433 13.9318C9.61628 13.9318 9.75752 13.9318 9.80125 13.9318C9.80125 13.9318 12.9882 3.00137 13.2054 2.93598C15.0378 3.93759 15.993 10.0736 10.9391 12.0538L11.3828 13.977H15.6132C17.0883 12.4582 18 10.3974 18 8.16262C18 4.45236 15.3887 1.21601 11.9179 0.0229797Z" fill="white"/>
</svg>
