<svg width="50" height="50" viewBox="0 0 50 50" fill="none" xmlns="http://www.w3.org/2000/svg">
<path d="M45.3972 3.125H23.431C20.8931 3.125 18.8282 5.1899 18.8282 7.72781V21.8189L14.7495 19.7906C14.6118 19.722 14.4718 19.6571 14.3307 19.5957C15.5281 18.3456 16.2663 16.6519 16.2663 14.7884C16.2663 10.9528 13.1458 7.83195 9.31015 7.83195C5.47409 7.83195 2.35367 10.9528 2.35367 14.7884C2.35367 16.8728 3.27644 18.745 4.73366 20.0211C2.05002 21.5309 0 24.4762 0 28.125V32.832C0 34.8583 1.31569 36.5829 3.13797 37.196V45.3842C3.13797 46.1929 3.79372 46.8491 4.60281 46.8491H14.0167C14.8258 46.8491 15.4816 46.1929 15.4816 45.3842V28.9257L20.1714 31.2702C21.9662 32.1674 24.4007 31.6326 25.5016 29.5898H30.7537L25.1923 44.8833C24.9157 45.6436 25.3082 46.4844 26.0685 46.7606C26.9375 47.0768 27.7103 46.5317 27.9457 45.8847L33.8711 29.5898H34.898L40.884 45.8893C41.1114 46.5076 41.8785 47.0844 42.7643 46.759C43.5234 46.4802 43.9133 45.6387 43.634 44.8792L38.0188 29.5898H45.3972C47.8859 29.5898 50 27.5822 50 24.987V7.72781C50 5.13229 47.8859 3.125 45.3972 3.125ZM5.28336 14.7884C5.28336 12.5679 7.08961 10.7616 9.30977 10.7616C11.5303 10.7616 13.3366 12.5679 13.3366 14.7884C13.3366 17.0086 11.5303 18.8148 9.30977 18.8148C7.08961 18.8148 5.28336 17.0086 5.28336 14.7884ZM22.998 28.0235C22.9942 28.0342 22.9904 28.0453 22.987 28.0563C22.887 28.3352 22.6612 28.5702 22.3846 28.6839C22.0921 28.8029 21.7628 28.7903 21.4817 28.6499C18.6962 27.2564 14.6713 25.2457 14.6713 25.2457C13.6993 24.7597 12.5519 25.4677 12.5519 26.556V43.9194H6.06766V35.9699C6.06766 35.1612 5.41153 34.5051 4.60281 34.5051C3.68004 34.5051 2.92969 33.7547 2.92969 32.832V28.125C2.92969 24.5457 5.84412 21.7449 9.30977 21.7449H10.6041C11.586 21.7449 12.5668 21.9753 13.443 22.4129C13.443 22.4129 20.7088 26.0262 22.5594 26.9478C22.9557 27.1446 23.1441 27.607 22.998 28.0235ZM47.0703 24.987C47.0703 25.4345 46.8967 25.8545 46.5809 26.1703C46.27 26.4816 45.8385 26.6602 45.3972 26.6602H25.8202C25.8175 26.6521 25.8156 26.6441 25.8129 26.6365L29.4483 19.3661C29.81 18.6424 29.517 17.7628 28.7933 17.4007C28.0701 17.0391 27.19 17.3321 26.828 18.0557L23.7274 24.2565C23.1495 23.9685 22.4777 23.634 21.7579 23.2761V7.72781C21.7579 6.80542 22.5082 6.05469 23.431 6.05469H45.3972C45.8385 6.05469 46.27 6.23322 46.5813 6.54526C46.8967 6.86035 47.0703 7.28035 47.0703 7.72781V24.987Z" fill="#DADADA"/>
<path d="M42.2592 9.40094H26.569C25.7599 9.40094 25.1041 10.0567 25.1041 10.8658C25.1041 11.6749 25.7599 12.3306 26.569 12.3306H42.2592C43.0679 12.3306 43.724 11.6749 43.724 10.8658C43.724 10.0567 43.0683 9.40094 42.2592 9.40094Z" fill="#DADADA"/>
<path d="M42.2592 14.8926H34.4139C33.6052 14.8926 32.9491 15.5483 32.9491 16.3574C32.9491 17.1665 33.6052 17.8223 34.4139 17.8223H42.2592C43.068 17.8223 43.7241 17.1665 43.7241 16.3574C43.7241 15.5483 43.0683 14.8926 42.2592 14.8926Z" fill="#DADADA"/>
<path d="M42.2592 20.3842H34.4139C33.6052 20.3842 32.9491 21.04 32.9491 21.8491C32.9491 22.6578 33.6052 23.3139 34.4139 23.3139H42.2592C43.068 23.3139 43.7241 22.6578 43.7241 21.8491C43.7241 21.04 43.0683 20.3842 42.2592 20.3842Z" fill="#DADADA"/>
</svg>
