<svg width="50" height="50" viewBox="0 0 50 50" fill="none" xmlns="http://www.w3.org/2000/svg">
<g clip-path="url(#clip0)">
<path d="M42.5111 38.5868C41.9187 37.205 40.7767 36.0962 39.378 35.5446L33.0899 33.0652L30.4613 31.0116V29.2134C31.3125 28.5833 32.0621 27.8618 32.6943 27.0578C32.7292 27.0134 32.7577 26.9662 32.7811 26.9173C32.9613 26.8677 33.1371 26.8081 33.3074 26.7357C35.1418 25.9547 35.6319 24.1381 35.6519 24.0612C35.7258 23.7762 35.6238 23.4751 35.3933 23.2918C35.1973 23.1356 34.9378 23.092 34.7039 23.1658C34.8778 22.6019 35.0198 22.0156 35.1271 21.4059C35.1379 21.4064 35.1484 21.4075 35.1592 21.4075C37.1128 21.4075 38.7023 19.8181 38.7023 17.8645C38.7023 16.2715 37.6454 14.921 36.1961 14.4765C37.9925 13.8757 39.4107 12.4882 40.0456 10.6786C40.8644 8.3444 40.2127 5.75898 38.3851 4.09195L37.0349 2.86055C36.1962 2.0954 35.1634 1.57768 34.0485 1.36334L28.9953 0.391792C26.2782 -0.130597 23.5229 -0.130597 20.8059 0.391792L16.289 1.26019C14.8232 1.542 13.4656 2.22269 12.3629 3.22852L11.4163 4.09195C9.58864 5.75898 8.93687 8.3444 9.75578 10.6786C10.4321 12.6061 11.9968 14.0549 13.961 14.5841C12.6682 15.1128 11.7546 16.3837 11.7546 17.8645C11.7546 19.7218 13.1914 21.2487 15.0117 21.395C15.1349 22.0978 15.3028 22.7707 15.5145 23.4127C15.2149 23.315 15.0232 23.2167 15.0213 23.2157C14.7602 23.0772 14.442 23.1062 14.2103 23.2892C13.9784 23.4723 13.8766 23.7752 13.9508 24.0612C13.9708 24.1381 14.4608 25.9547 16.2952 26.7357C16.6642 26.8927 17.0574 26.9946 17.4731 27.044C17.5004 27.1099 17.5375 27.1731 17.585 27.2311C18.1504 27.9216 18.8058 28.5495 19.5388 29.1081V31.1516L16.9725 33.0405L10.622 35.5446C9.22335 36.0961 8.08129 37.2049 7.48874 38.5868C6.15331 41.7009 5.4762 44.998 5.4762 48.3865C5.4762 49.2761 6.20001 49.9999 7.08967 49.9999H17.3363C17.7478 49.9999 18.0815 49.6663 18.0815 49.2547C18.0815 48.8431 17.7478 48.5094 17.3363 48.5094H13.0571C13.0761 47.7122 13.2053 46.5316 13.4214 45.599C13.5143 45.1981 13.2644 44.7977 12.8635 44.7048C12.4626 44.612 12.0622 44.8617 11.9693 45.2627C11.7379 46.2616 11.5845 47.5541 11.5662 48.5094H7.08967C7.0219 48.5094 6.96675 48.4542 6.96675 48.3865C6.96675 45.2012 7.60332 42.1017 8.85876 39.1741C9.2956 38.1555 10.1376 37.3379 11.1689 36.9313L16.9582 34.6484L20.0921 41.3426C20.2569 41.6947 20.5689 41.946 20.948 42.032C21.0412 42.0532 21.135 42.0636 21.228 42.0636C21.5134 42.0636 21.7908 41.9657 22.0176 41.7799L22.0732 41.7343L22.9129 43.4721L21.2421 48.5094H20.3175C19.9059 48.5094 19.5722 48.8431 19.5722 49.2547C19.5722 49.6663 19.9059 49.9999 20.3175 49.9999H42.9105C43.8002 49.9999 44.524 49.2761 44.524 48.3865C44.5239 44.998 43.8467 41.7009 42.5111 38.5868ZM26.5642 38.5287L30.0805 32.6056L31.9284 34.0491L28.8918 40.4353L26.5642 38.5287ZM25.0994 38.0763L21.0292 31.2201V30.0759C22.2886 30.7384 23.679 31.0704 25.07 31.0704C26.4094 31.0704 27.7488 30.7621 28.9707 30.1478V31.555L25.0994 38.0763ZM28.9108 28.4722C26.5777 29.9507 23.5624 29.9507 21.2293 28.4722C20.5231 28.0246 19.8869 27.5115 19.3278 26.9422C20.3077 26.7392 21.3805 26.3115 22.5405 25.6596C23.0174 25.3916 23.4145 25.2147 23.7907 25.1031C24.1787 24.9879 24.5227 24.7796 24.8013 24.5072C25.0798 24.7796 25.4238 24.9879 25.8118 25.1031C26.1879 25.2147 26.585 25.3916 27.0619 25.6596C28.4058 26.4149 29.6321 26.8685 30.733 27.0209C30.193 27.5589 29.5842 28.0455 28.9108 28.4722ZM17.1506 23.5564C16.4817 21.8578 16.1826 19.8749 16.2567 17.6422C17.1151 18.4802 18.2874 18.998 19.5789 18.998H30.5496C31.8472 18.998 33.0246 18.4755 33.8841 17.6306C33.9602 19.8899 33.6538 21.893 32.9706 23.6045C32.2116 23.6088 31.6206 23.3154 31.1709 22.7116C29.3833 20.3106 26.7228 20.2914 26.5059 20.2933C25.8436 20.2948 25.2426 20.5603 24.8014 20.9893C24.36 20.5603 23.7591 20.2948 23.0969 20.2933C22.8787 20.2906 20.2191 20.3108 18.4317 22.7116C18.09 23.1706 17.667 23.4502 17.1506 23.5564ZM32.7063 25.3714C31.5366 25.8592 29.8372 25.5095 27.7923 24.3602C27.216 24.0363 26.7215 23.8182 26.2362 23.6742C25.8301 23.5536 25.5466 23.1731 25.5466 22.7488C25.5466 22.2167 25.9795 21.7838 26.5116 21.7838C26.5161 21.7838 26.5229 21.7836 26.532 21.7837C26.6962 21.7837 28.6506 21.8224 29.9754 23.6017C30.8785 24.8148 32.1086 25.1438 33.2095 25.0892C33.0622 25.196 32.8953 25.2927 32.7063 25.3714ZM37.2117 17.8645C37.2117 18.9419 36.3767 19.8262 35.3201 19.9088C35.426 18.6497 35.405 17.3079 35.2553 15.8897C35.2527 15.8647 35.2488 15.8403 35.2438 15.8163C36.3362 15.8611 37.2117 16.7613 37.2117 17.8645ZM11.1623 10.1851C10.5416 8.41605 11.0356 6.45666 12.4207 5.19317L13.3673 4.32974C14.267 3.50914 15.3746 2.95386 16.5704 2.72391L21.0873 1.85552C23.6176 1.3689 26.1835 1.3689 28.7139 1.85552L33.767 2.82706C34.612 2.98953 35.3947 3.38194 36.0304 3.96177L37.3804 5.19317C38.7656 6.45656 39.2595 8.41605 38.639 10.1851C38.1121 11.6869 36.8737 12.8054 35.3262 13.1773L34.3882 13.4027H23.5296C23.118 13.4027 22.7843 13.7364 22.7843 14.148C22.7843 14.5596 23.118 14.8933 23.5296 14.8933H33.7529C33.4488 16.3832 32.128 17.5075 30.5496 17.5075H19.5789C18.0005 17.5075 16.6798 16.3832 16.3756 14.8933H20.5485C20.9601 14.8933 21.2938 14.5596 21.2938 14.148C21.2938 13.7364 20.9601 13.4027 20.5485 13.4027C20.5485 13.4027 15.4889 13.4065 15.4521 13.4121L14.475 13.1773C12.9275 12.8054 11.6891 11.6869 11.1623 10.1851ZM13.2451 17.8645C13.2451 16.8721 13.9532 16.0421 14.8906 15.8528C14.7396 17.2654 14.715 18.6026 14.817 19.8578C13.9167 19.6406 13.2451 18.8305 13.2451 17.8645ZM16.3931 25.0892C17.4945 25.1435 18.7241 24.8147 19.6271 23.6018C20.952 21.8224 22.9065 21.7837 23.0706 21.7837C23.0815 21.7837 23.085 21.7838 23.091 21.7838C23.623 21.7838 24.056 22.2168 24.056 22.7488C24.056 23.1731 23.7724 23.5536 23.3664 23.6742C22.881 23.8182 22.3866 24.0363 21.8102 24.3602C19.7652 25.5095 18.0659 25.8591 16.8961 25.3714C16.7072 25.2927 16.5402 25.196 16.3931 25.0892ZM18.293 33.9842C18.3168 33.9493 18.3372 33.9122 18.3548 33.8737L20.1058 32.5849L23.6344 38.5287L21.3113 40.4316L18.293 33.9842ZM25.0747 39.2758C25.0834 39.2687 25.0911 39.261 25.0994 39.2536C25.1076 39.261 25.1154 39.2687 25.124 39.2758L26.8764 40.7111L25.9276 42.6747H24.1829L23.2591 40.7629L25.0747 39.2758ZM24.2533 44.1652H25.8573L27.2982 48.5094H22.8124L24.2533 44.1652ZM42.9103 48.5094H38.4338C38.4155 47.554 38.2621 46.2615 38.0307 45.2627C37.9378 44.8617 37.5376 44.612 37.1365 44.7048C36.7355 44.7977 36.4857 45.1981 36.5786 45.599C36.7946 46.5315 36.9238 47.7121 36.9429 48.5094H28.8686L27.1978 43.4722L28.0625 41.6826L28.1842 41.7824C28.411 41.9681 28.6885 42.0661 28.974 42.0661C29.0657 42.0661 29.1583 42.056 29.2503 42.0354C29.6282 41.9507 29.9402 41.7016 30.1064 41.3518L33.254 34.7321L38.8312 36.9313C39.8623 37.3379 40.7044 38.1554 41.1412 39.1741C42.3967 42.1017 43.0332 45.2012 43.0332 48.3865C43.0333 48.4542 42.9782 48.5094 42.9103 48.5094Z" fill="#3EA700"/>
<path d="M34.6411 44.0921H30.1732C29.7615 44.0921 29.4279 44.4258 29.4279 44.8374C29.4279 45.249 29.7615 45.5827 30.1732 45.5827H34.6411C35.0528 45.5827 35.3864 45.249 35.3864 44.8374C35.3864 44.4258 35.0527 44.0921 34.6411 44.0921Z" fill="#3EA700"/>
<path d="M25.0701 12.3553C27.3715 12.3553 29.2437 10.137 29.2437 7.41028C29.2437 6.57915 29.0667 5.75686 28.7317 5.03235C28.5399 4.61778 28.1193 4.34977 27.6598 4.34977H22.4804C22.0209 4.34977 21.6002 4.61768 21.4085 5.03235C21.0735 5.75686 20.8966 6.57905 20.8966 7.41028C20.8966 10.137 22.7688 12.3553 25.0701 12.3553ZM22.6828 5.84043H27.4574C27.6514 6.32496 27.7532 6.86345 27.7532 7.41038C27.7532 9.31511 26.5497 10.8648 25.0702 10.8648C23.5908 10.8648 22.3872 9.31511 22.3872 7.41038C22.3871 6.86335 22.489 6.32476 22.6828 5.84043Z" fill="#3EA700"/>
</g>
<defs>
<clipPath id="clip0">
<rect width="50" height="50" fill="white"/>
</clipPath>
</defs>
</svg>
