<svg width="50" height="50" viewBox="0 0 50 50" fill="none" xmlns="http://www.w3.org/2000/svg">
<g clip-path="url(#clip0)">
<path d="M49.7076 7.95869L39.6112 0.154971C39.387 -0.0181698 39.0842 -0.048759 38.8299 0.0759737C38.5757 0.200805 38.4147 0.459279 38.4147 0.742403V4.49765C33.954 5.29683 29.9008 7.41937 26.6577 10.6613C23.9936 13.3255 22.0618 16.5881 21.0236 20.157C18.2915 17.8501 15.061 16.2423 11.5853 15.4654V12.1653C11.5853 11.8822 11.4242 11.6236 11.1701 11.4989C10.9159 11.3742 10.6128 11.4049 10.3887 11.5779L5.79668 15.1272C5.47228 15.3779 5.41259 15.8442 5.66324 16.1687C5.91409 16.4931 6.38025 16.5529 6.70476 16.3021L10.1003 13.6777V16.0688C10.1003 16.4242 10.3521 16.7298 10.701 16.7976C14.3954 17.5159 17.816 19.2345 20.6199 21.7763C20.3027 23.2847 20.1403 24.8362 20.1403 26.3959V30.6849C19.7225 29.8253 19.2197 29.001 18.6333 28.2213C16.7413 25.7053 14.0518 23.8149 11.0602 22.8983C10.8353 22.8295 10.5906 22.8711 10.4013 23.0113C10.2119 23.1512 10.1003 23.3728 10.1003 23.6082V26.2606L1.96046 19.9691L4.12398 18.2969C4.44838 18.0461 4.50807 17.5798 4.25732 17.2553C4.00657 16.9308 3.54031 16.8711 3.2158 17.1219L0.292307 19.3816C0.110455 19.5222 0.00393677 19.7392 0.00393677 19.9691C0.00393677 20.1989 0.110455 20.4159 0.292307 20.5565L10.3887 28.3602C10.613 28.5334 10.9159 28.564 11.1701 28.4392C11.4243 28.3144 11.5853 28.0559 11.5853 27.7728V24.6535C13.8918 25.5614 15.947 27.1193 17.4466 29.1137C19.2089 31.457 20.1404 34.246 20.1404 37.1792V49.2575C20.1404 49.6675 20.4727 49.9999 20.8828 49.9999H28.2015C28.6116 49.9999 28.9439 49.6675 28.9439 49.2575V40.9824C28.9439 40.5723 28.6116 40.2399 28.2015 40.2399C27.7913 40.2399 27.459 40.5723 27.459 40.9824V48.515H21.6253V26.3958C21.6253 24.8017 21.8047 23.217 22.1586 21.6853C23.0272 17.922 24.9461 14.473 27.7078 11.7115C30.8769 8.54335 34.8741 6.5207 39.2672 5.86219C39.6307 5.80774 39.8997 5.49551 39.8997 5.12795V2.25464L48.0397 8.54612L39.8997 14.8376V12.5772C39.8997 12.3505 39.7962 12.1362 39.6186 11.9955C39.4409 11.8546 39.2085 11.8026 38.9881 11.8543C35.7642 12.609 32.8381 14.456 30.749 17.055C28.6274 19.6943 27.4591 23.0116 27.4591 26.3958V38.0123C27.4591 38.4224 27.7914 38.7548 28.2016 38.7548C28.6117 38.7548 28.944 38.4224 28.944 38.0123V26.3958C28.944 23.3487 29.996 20.3618 31.9064 17.9852C33.5896 15.8911 35.8747 14.3392 38.4148 13.5485V16.3498C38.4148 16.633 38.5758 16.8915 38.83 17.0163C39.0842 17.1411 39.3873 17.1103 39.6113 16.9373L49.7077 9.13355C49.8896 8.99298 49.9961 8.77598 49.9961 8.54612C49.9961 8.31625 49.8895 8.09926 49.7076 7.95869Z" fill="#3EA700"/>
</g>
<defs>
<clipPath id="clip0">
<rect width="50" height="50" fill="white"/>
</clipPath>
</defs>
</svg>
