<svg width="50" height="50" viewBox="0 0 50 50" fill="none" xmlns="http://www.w3.org/2000/svg">
<g clip-path="url(#clip0)">
<path d="M27.8585 23.6735C28.0319 23.3081 27.8763 22.8713 27.5108 22.6979C27.1453 22.5244 26.7085 22.6801 26.5351 23.0455C26.2222 23.7047 25.5488 24.1307 24.8194 24.1307C24.09 24.1307 23.4166 23.7047 23.1038 23.0455C22.9303 22.6801 22.4935 22.5244 22.1281 22.6979C21.7626 22.8713 21.607 23.3081 21.7803 23.6735C22.3344 24.8411 23.5273 25.5955 24.8194 25.5955C26.1115 25.5955 27.3044 24.841 27.8585 23.6735Z" fill="#3EA700"/>
<path d="M19.4092 20.6572C19.9935 20.6572 20.4671 19.9522 20.4671 19.0825C20.4671 18.2128 19.9935 17.5078 19.4092 17.5078C18.825 17.5078 18.3513 18.2128 18.3513 19.0825C18.3513 19.9522 18.825 20.6572 19.4092 20.6572Z" fill="#3EA700"/>
<path d="M30.2295 20.6572C30.8138 20.6572 31.2875 19.9522 31.2875 19.0825C31.2875 18.2128 30.8138 17.5078 30.2295 17.5078C29.6453 17.5078 29.1716 18.2128 29.1716 19.0825C29.1716 19.9522 29.6453 20.6572 30.2295 20.6572Z" fill="#3EA700"/>
<path d="M40.7403 31.1028C40.6547 30.7075 40.265 30.4565 39.8694 30.5422L31.759 32.3C31.3637 32.3856 31.1128 32.7756 31.1984 33.1709C31.2727 33.5139 31.5762 33.7483 31.9134 33.7483C31.9648 33.7483 32.0171 33.7428 32.0693 33.7315L40.1797 31.9737C40.575 31.8881 40.826 31.4982 40.7403 31.1028Z" fill="#3EA700"/>
<path d="M39.8693 33.2638L31.7589 35.0216C31.3636 35.1073 31.1126 35.4972 31.1983 35.8925C31.2726 36.2356 31.5761 36.47 31.9133 36.47C31.9647 36.47 32.0169 36.4645 32.0692 36.4532L40.1795 34.6954C40.5749 34.6097 40.8258 34.2198 40.7402 33.8244C40.6546 33.4291 40.265 33.1783 39.8693 33.2638Z" fill="#3EA700"/>
<path d="M44.5664 28.6817H44.128V27.3877C44.128 26.483 43.7238 25.6384 43.0191 25.0703C42.3146 24.5023 41.4037 24.2866 40.5198 24.4786L36.702 25.306C36.9563 24.6196 37.1074 23.8951 37.1456 23.1576C37.1703 22.675 37.1895 22.1915 37.2053 21.7076C38.6758 21.3868 39.7806 20.0754 39.7806 18.5101C39.7806 16.9265 38.6509 15.6021 37.1552 15.3005C37.067 13.4657 36.9149 11.6329 36.7003 9.81016C38.414 7.98154 39.7612 5.94453 40.1842 4.44658C40.4525 3.49619 40.3761 2.73574 39.9571 2.18652C39.5704 1.67969 39.0432 1.41016 38.4325 1.40713C37.7333 1.40459 36.9693 1.73994 36.0991 2.43164C36.132 1.804 36.0219 1.28574 35.7689 0.883301C35.5157 0.480273 34.9976 0 33.9679 0C32.5986 0 31.5227 0.768555 30.7367 1.65654C30.6598 1.30225 30.5291 0.971582 30.3219 0.699316C29.9741 0.241895 29.4653 0 28.8507 0C27.6636 0 26.7273 0.984473 25.7956 2.17803C25.4051 1.95781 24.8637 1.67803 24.2227 1.41543C23.932 1.29697 23.6324 1.1874 23.3293 1.08867C22.253 0.743555 21.2431 0.593164 20.3277 0.641602C20.3212 0.641895 20.3121 0.642578 20.3036 0.643359C20.3011 0.643457 20.2987 0.643555 20.2962 0.64375C20.1608 0.651465 20.0292 0.663477 19.8921 0.680664C18.3139 0.881348 17.0677 1.68096 16.1793 3.06055C14.5899 2.50381 12.0253 2.30322 10.6277 4.56855C10.4153 4.91279 10.5221 5.36406 10.8665 5.57647C10.9864 5.65039 11.1191 5.68564 11.2504 5.68564C11.4961 5.68564 11.736 5.56211 11.8744 5.3377C13.1806 3.22041 16.0492 4.58154 16.169 4.63965C16.5271 4.81582 16.9602 4.67295 17.1431 4.31836C17.8164 3.01387 18.776 2.29922 20.0753 2.13398C20.1752 2.12148 20.2722 2.1126 20.3718 2.10674C20.3869 2.10615 20.4024 2.10508 20.4181 2.10381C21.1522 2.0668 21.9809 2.19473 22.8788 2.48262C23.1455 2.56943 23.4117 2.6668 23.6687 2.77158C24.1508 2.96904 24.5727 3.17949 24.8989 3.35645C24.1304 4.36172 23.3384 5.3083 22.5141 5.6127C22.1346 5.75283 21.9406 6.17402 22.0807 6.55352C22.221 6.93301 22.6422 7.12695 23.0216 6.98691C24.3744 6.4873 25.4129 5.11006 26.4173 3.77822C27.2349 2.69375 28.1617 1.46484 28.8507 1.46484C29.0471 1.46484 29.1111 1.52725 29.1557 1.58574C29.5166 2.05938 29.3419 3.5252 29.1104 4.36602C29.0057 4.74336 29.2164 5.13623 29.5885 5.25791C29.9609 5.37979 30.3628 5.18711 30.5012 4.8209C30.5139 4.7873 31.8302 1.46484 33.9679 1.46484C34.4042 1.46484 34.4979 1.61367 34.5287 1.6625C34.8682 2.20146 34.4041 3.75244 33.9838 4.63047C33.8215 4.96777 33.9397 5.37314 34.2579 5.57041C34.5759 5.76768 34.9918 5.69326 35.2217 5.39795C35.2268 5.39131 35.7432 4.73086 36.4413 4.07422C37.5928 2.99072 38.2087 2.87188 38.4224 2.87188H38.4253C38.5532 2.87256 38.6646 2.90732 38.7925 3.0749C38.9098 3.22881 38.9031 3.59268 38.7744 4.04844C38.0554 6.59473 33.9372 11.225 30.7107 12.4716C26.5012 14.098 20.8749 13.2192 18.1684 10.5128C17.9725 10.3169 17.683 10.2483 17.4201 10.3354C17.1572 10.4227 16.9659 10.6506 16.9259 10.9247C16.9242 10.9358 16.7566 12.0484 16.1731 13.1594C15.4493 14.5378 14.4442 15.2367 13.1859 15.2367C13.1849 15.2367 13.1841 15.2368 13.1832 15.2368C13.1658 15.2364 13.1485 15.2357 13.1311 15.2357C12.7493 15.2357 12.3828 15.3021 12.0417 15.4229C11.29 12.2462 10.9976 9.679 11.1754 7.78623C11.2132 7.3835 10.9174 7.02637 10.5146 6.98857C10.112 6.95088 9.75476 7.24658 9.71697 7.64932C9.51472 9.80361 9.86023 12.7058 10.7411 16.2763C10.1938 16.8617 9.85789 17.6472 9.85789 18.5101C9.85789 20.0757 10.9631 21.3874 12.4341 21.7078C12.45 22.1922 12.4692 22.6758 12.494 23.1574C12.53 23.8637 12.67 24.5595 12.9054 25.2209L9.48054 24.4786C8.59656 24.2866 7.68542 24.5022 6.98074 25.0703C6.27605 25.6384 5.87195 26.483 5.87195 27.3877V28.6817H5.43357C3.89753 28.6817 2.64783 29.9314 2.64783 31.4675V33.3105C2.64783 34.8466 3.89753 36.0963 5.43357 36.0963H5.87195V43.8955C5.87195 45.2871 6.85896 46.511 8.21882 46.8057L22.8819 49.9834C22.8828 49.9836 22.8837 49.9836 22.8844 49.9838C22.9047 49.9881 22.9254 49.9912 22.9462 49.9938C22.9509 49.9943 22.9554 49.9954 22.9601 49.9959C22.9843 49.9984 23.009 49.9997 23.0339 49.9998C23.0349 49.9998 23.036 50 23.0371 50H26.9629C26.9639 50 26.965 49.9998 26.9661 49.9998C26.991 49.9997 27.0156 49.9984 27.0398 49.9959C27.0445 49.9954 27.0491 49.9943 27.0538 49.9938C27.0746 49.9912 27.0952 49.9881 27.1155 49.9838C27.1164 49.9836 27.1173 49.9836 27.118 49.9834L41.781 46.8057C43.1409 46.511 44.1279 45.2871 44.1279 43.8955V42.8967C44.1279 42.4922 43.8 42.1643 43.3955 42.1643C42.991 42.1643 42.6631 42.4922 42.6631 42.8967V43.8955C42.6631 44.6025 42.1617 45.2243 41.4709 45.374L27.6952 48.3595V28.7567L40.8303 25.9101C41.2792 25.8126 41.7419 25.9222 42.0999 26.2107C42.4579 26.4993 42.6633 26.9283 42.6633 27.3877V28.9245C41.6917 29.3601 41.0129 30.3356 41.0129 31.4674V33.3105C41.0129 34.4424 41.6917 35.418 42.6633 35.8534V39.967C42.6633 40.3715 42.9912 40.6994 43.3957 40.6994C43.8002 40.6994 44.1281 40.3715 44.1281 39.967V36.0963H44.5665C46.1025 36.0963 47.3522 34.8466 47.3522 33.3105V31.4674C47.3521 29.9313 46.1024 28.6817 44.5664 28.6817ZM38.3158 18.51C38.3158 19.2461 37.873 19.8798 37.2404 20.1617C37.2548 19.0574 37.2461 17.9513 37.2142 16.8448C37.861 17.1207 38.3158 17.7631 38.3158 18.51ZM11.3229 18.51C11.3229 17.7639 11.7768 17.122 12.4227 16.8456C12.3912 17.9494 12.3839 19.0569 12.3985 20.1617C11.7657 19.8799 11.3229 19.2462 11.3229 18.51ZM13.9571 23.0823C13.8472 20.9544 13.8271 18.7935 13.8951 16.6485C15.3917 16.4216 16.6182 15.4627 17.4702 13.8404C17.7428 13.3213 17.9393 12.804 18.078 12.3629C19.5704 13.4753 21.5402 14.2479 23.7535 14.5734C26.3603 14.9569 29.0186 14.6958 31.2387 13.8381C32.5989 13.3126 34.043 12.314 35.3709 11.1159C35.7803 15.0942 35.8858 19.1126 35.6827 23.0823C35.6349 24.005 35.3664 24.9021 34.9043 25.6956L26.8844 27.4337H23.1156L14.6834 25.6063C14.2528 24.8359 14.0023 23.9699 13.9571 23.0823ZM23.7698 28.8984H26.2303V48.5352H23.7698V28.8984ZM4.11287 33.3105V31.4674C4.11287 30.7391 4.70544 30.1465 5.43376 30.1465H6.20173C6.93005 30.1465 7.52263 30.7391 7.52263 31.4674V33.3105C7.52263 34.0389 6.93005 34.6314 6.20173 34.6314H5.43376C4.70544 34.6314 4.11287 34.039 4.11287 33.3105ZM7.33699 43.8955V35.8535C8.30857 35.418 8.98738 34.4424 8.98738 33.3106V31.4675C8.98738 30.3356 8.30857 29.3601 7.33699 28.9246V27.3877C7.33699 26.9283 7.54236 26.4993 7.90037 26.2107C8.25837 25.9222 8.72107 25.8126 9.17019 25.9102L22.305 28.7567V48.3595L8.52917 45.374C7.83835 45.2243 7.33699 44.6025 7.33699 43.8955ZM45.8873 33.3105C45.8873 34.0389 45.2947 34.6314 44.5664 34.6314H43.7984C43.0701 34.6314 42.4775 34.0389 42.4775 33.3105V31.4674C42.4775 30.7391 43.0701 30.1465 43.7984 30.1465H44.5664C45.2947 30.1465 45.8873 30.7391 45.8873 31.4674V33.3105Z" fill="#3EA700"/>
</g>
<defs>
<clipPath id="clip0">
<rect width="50" height="50" fill="white"/>
</clipPath>
</defs>
</svg>
