<svg width="50" height="50" viewBox="0 0 50 50" fill="none" xmlns="http://www.w3.org/2000/svg">
<path d="M40.4305 14.5264C40.9698 14.5264 41.4071 14.0892 41.4071 13.5498V2.92969C41.4071 1.31426 40.0928 0 38.4774 0H2.93051C1.31508 0 0.000823975 1.31426 0.000823975 2.92969V47.0703C0.000823975 48.6857 1.31508 50 2.93051 50H38.4774C40.0928 50 41.4071 48.6857 41.4071 47.0703V39.8758C41.4071 39.3364 40.9698 38.8992 40.4305 38.8992C39.8913 38.8992 39.454 39.3364 39.454 39.8758V47.0703C39.454 47.6088 39.0159 48.0469 38.4774 48.0469H2.93051C2.39204 48.0469 1.95395 47.6088 1.95395 47.0703V2.92969C1.95395 2.39121 2.39204 1.95312 2.93051 1.95312H38.4774C39.0159 1.95312 39.454 2.39121 39.454 2.92969V13.5498C39.454 14.0892 39.8913 14.5264 40.4305 14.5264Z" fill="#3EA700"/>
<path d="M20.7038 5.27344C15.7498 5.27344 11.7194 9.30381 11.7194 14.2578C11.7194 16.8278 12.8044 19.1489 14.5399 20.788C14.5724 20.8228 14.607 20.8557 14.6448 20.8856C16.2435 22.3484 18.3712 23.2421 20.7037 23.2421C23.0362 23.2421 25.1638 22.3483 26.7626 20.8856C26.8004 20.8557 26.8349 20.8227 26.8675 20.788C28.6032 19.1489 29.6882 16.8278 29.6882 14.2578C29.6882 9.30381 25.6578 5.27344 20.7038 5.27344ZM20.7038 21.2891C19.1092 21.2891 17.6375 20.7547 16.4566 19.8566C17.3149 18.3347 18.9166 17.3828 20.7038 17.3828C22.491 17.3828 24.0927 18.3347 24.951 19.8566C23.77 20.7547 22.2984 21.2891 20.7038 21.2891ZM19.1413 13.8672V13.2324C19.1413 12.3709 19.8423 11.6699 20.7038 11.6699C21.5653 11.6699 22.2663 12.3709 22.2663 13.2324V13.8672C22.2663 14.7287 21.5653 15.4297 20.7038 15.4297C19.8423 15.4297 19.1413 14.7287 19.1413 13.8672ZM26.362 18.4261C25.6418 17.3579 24.6436 16.5271 23.4847 16.0143C23.9447 15.4198 24.2194 14.6752 24.2194 13.8672V13.2324C24.2194 11.2938 22.6424 9.7168 20.7038 9.7168C18.7652 9.7168 17.1882 11.2938 17.1882 13.2324V13.8672C17.1882 14.6752 17.4629 15.4198 17.9228 16.0143C16.7639 16.5271 15.7658 17.3579 15.0456 18.4261C14.1834 17.2588 13.6725 15.8171 13.6725 14.2578C13.6725 10.3808 16.8267 7.22656 20.7038 7.22656C24.5808 7.22656 27.735 10.3808 27.735 14.2578C27.735 15.8171 27.2242 17.2588 26.362 18.4261Z" fill="#3EA700"/>
<path d="M25.9772 42.7734H20.7038C20.1645 42.7734 19.7272 43.2106 19.7272 43.75C19.7272 44.2894 20.1645 44.7266 20.7038 44.7266H25.9772C26.5165 44.7266 26.9538 44.2894 26.9538 43.75C26.9538 43.2106 26.5165 42.7734 25.9772 42.7734Z" fill="#3EA700"/>
<path d="M25.9772 37.3047H12.11C11.5708 37.3047 11.1335 37.7419 11.1335 38.2812C11.1335 38.8206 11.5708 39.2578 12.11 39.2578H25.9772C26.5165 39.2578 26.9538 38.8206 26.9538 38.2812C26.9538 37.7419 26.5165 37.3047 25.9772 37.3047Z" fill="#3EA700"/>
<path d="M25.9772 31.8359H12.11C11.5708 31.8359 11.1335 32.2731 11.1335 32.8125C11.1335 33.3519 11.5708 33.7891 12.11 33.7891H25.9772C26.5165 33.7891 26.9538 33.3519 26.9538 32.8125C26.9538 32.2731 26.5165 31.8359 25.9772 31.8359Z" fill="#3EA700"/>
<path d="M8.62949 26.6533C8.44795 26.4717 8.196 26.3672 7.93818 26.3672C7.68125 26.3672 7.4293 26.4717 7.24775 26.6533C7.06611 26.835 6.96162 27.0869 6.96162 27.3438C6.96162 27.6006 7.06602 27.8525 7.24775 28.0342C7.43037 28.2158 7.68125 28.3203 7.93818 28.3203C8.196 28.3203 8.44697 28.2158 8.62949 28.0342C8.81113 27.8525 8.91572 27.6006 8.91572 27.3438C8.91572 27.0869 8.81123 26.835 8.62949 26.6533Z" fill="#3EA700"/>
<path d="M8.62949 32.1221C8.44697 31.9404 8.196 31.8359 7.93818 31.8359C7.68125 31.8359 7.43037 31.9404 7.24775 32.1221C7.06611 32.3037 6.96162 32.5557 6.96162 32.8125C6.96162 33.0693 7.06602 33.3213 7.24775 33.5029C7.43037 33.6846 7.68125 33.7891 7.93818 33.7891C8.196 33.7891 8.44697 33.6846 8.62949 33.5029C8.81113 33.3213 8.91572 33.0693 8.91572 32.8125C8.91572 32.5557 8.81123 32.3037 8.62949 32.1221Z" fill="#3EA700"/>
<path d="M8.62949 37.5908C8.44697 37.4092 8.196 37.3047 7.93818 37.3047C7.68125 37.3047 7.43037 37.4092 7.24775 37.5908C7.06611 37.7725 6.96162 38.0244 6.96162 38.2812C6.96162 38.5381 7.06602 38.79 7.24775 38.9717C7.4293 39.1533 7.68125 39.2578 7.93818 39.2578C8.196 39.2578 8.44795 39.1533 8.62949 38.9717C8.81113 38.79 8.91572 38.5381 8.91572 38.2812C8.91572 38.0244 8.81123 37.7725 8.62949 37.5908Z" fill="#3EA700"/>
<path d="M25.9772 26.3672H12.11C11.5708 26.3672 11.1335 26.8044 11.1335 27.3438C11.1335 27.8831 11.5708 28.3203 12.11 28.3203H25.9772C26.5165 28.3203 26.9538 27.8831 26.9538 27.3438C26.9538 26.8044 26.5165 26.3672 25.9772 26.3672Z" fill="#3EA700"/>
<path d="M47.9494 12.7265C47.0007 12.1787 45.8954 12.0332 44.837 12.3167C43.7788 12.6003 42.8942 13.279 42.3466 14.2277L30.0573 35.5132C29.99 35.6299 29.9475 35.7593 29.9325 35.8932L29.0675 43.6416C29.0245 44.0272 29.2138 44.4017 29.5497 44.5957C29.7014 44.6832 29.8698 44.7266 30.0379 44.7266C30.2422 44.7266 30.4457 44.6626 30.6171 44.5363L36.8948 39.9129C37.0033 39.833 37.0941 39.7315 37.1614 39.6148L49.4506 18.3294C50.5814 16.3708 49.908 13.8573 47.9494 12.7265ZM31.2561 41.6399L31.7079 37.5938L34.5343 39.2257L31.2561 41.6399ZM35.9583 37.7925L32.2371 35.644L42.0989 18.563L45.8201 20.7114L35.9583 37.7925ZM47.7592 17.3527L46.7966 19.02L43.0754 16.8716L44.038 15.2043C44.3249 14.7073 44.7882 14.3519 45.3425 14.2033C45.897 14.0547 46.4759 14.1311 46.9727 14.418C47.4697 14.7049 47.8252 15.1682 47.9737 15.7225C48.1223 16.2768 48.0461 16.8558 47.7592 17.3527Z" fill="#3EA700"/>
</svg>
