<svg width="50" height="50" viewBox="0 0 50 50" fill="none" xmlns="http://www.w3.org/2000/svg">
<g clip-path="url(#clip0)">
<path d="M28.1576 20.8984C28.1576 19.1573 26.7411 17.7409 25 17.7409C23.259 17.7409 21.8425 19.1574 21.8425 20.8984C21.8425 22.6395 23.259 24.056 25 24.056C26.7411 24.056 28.1576 22.6395 28.1576 20.8984ZM23.7956 20.8984C23.7956 20.2343 24.3359 19.694 25 19.694C25.664 19.694 26.2043 20.2344 26.2043 20.8984C26.2043 21.5625 25.664 22.1028 25 22.1028C24.3359 22.1028 23.7956 21.5625 23.7956 20.8984Z" fill="#3EA700"/>
<path d="M49.924 35.198L48.319 31.3649L49.1915 30.0353C49.9134 28.9353 50.1268 27.577 49.777 26.3087L48.9659 23.3679C48.6103 22.0788 47.7969 20.9676 46.6755 20.2392C46.4948 20.1217 46.2813 20.0693 46.0689 20.0856C45.6098 10.469 38.6194 2.27787 29.1078 0.399963C28.579 0.295374 28.0651 0.639805 27.9606 1.1689C27.8561 1.698 28.2003 2.21166 28.7295 2.31616C37.6592 4.07922 44.1405 11.9763 44.1405 21.0937C44.1405 21.3638 44.1327 21.6355 44.1215 21.9062L42.0825 22.9953C42.1519 22.3652 42.1874 21.7289 42.1874 21.0937C42.1874 20.0335 42.0902 18.9956 41.9056 17.9879C41.9016 17.9602 41.8962 17.9331 41.8898 17.906C40.3909 9.94674 33.3883 3.90637 25.0001 3.90637C16.6083 3.90637 9.60323 9.95192 8.10832 17.9162C8.10324 17.9389 8.09856 17.9617 8.09514 17.9848C7.91008 18.9935 7.81272 20.0324 7.81272 21.0937C7.81272 21.7291 7.84836 22.3651 7.9177 22.9953L5.87768 21.9057C5.86645 21.6361 5.85961 21.364 5.85961 21.0937C5.85961 11.9646 12.3508 4.06555 21.2941 2.31157C21.8233 2.20776 22.1682 1.69458 22.0644 1.16529C21.9606 0.636191 21.4481 0.291175 20.9182 0.394983C11.3918 2.26332 4.39039 10.4568 3.93111 20.0857C3.71871 20.0694 3.50534 20.1218 3.32458 20.2393C2.2032 20.9677 1.38983 22.0788 1.03427 23.368L0.223141 26.3088C-0.126758 27.5771 0.0867168 28.9354 0.808585 30.0354L1.68114 31.365L0.0759747 35.198C-0.132324 35.6954 0.102146 36.2676 0.599603 36.4759C0.722844 36.5275 0.850577 36.552 0.976357 36.552C1.35819 36.552 1.72088 36.3265 1.87762 35.9523L3.37116 32.3854L7.61858 33.2814L3.93287 48.7973C3.80826 49.3221 4.13258 49.8486 4.65728 49.9732C4.73316 49.9913 4.80904 49.9998 4.88374 49.9998C5.32573 49.9998 5.72641 49.6975 5.83305 49.2488L9.20187 35.0671C13.1835 39.561 18.9337 42.1872 25 42.1872C28.3589 42.1872 31.7015 41.3779 34.6662 39.8467C36.9767 38.6535 39.0681 37.0195 40.7983 35.068L44.1668 49.2487C44.2734 49.6975 44.674 49.9997 45.1161 49.9997C45.1908 49.9997 45.2667 49.9911 45.3425 49.9731C45.8673 49.8485 46.1917 49.322 46.067 48.7972L42.3814 33.2815L46.6289 32.3855L48.1224 35.9524C48.2791 36.3267 48.6417 36.5521 49.0237 36.5521C49.1493 36.5521 49.2772 36.5275 49.4004 36.476C49.8979 36.2676 50.1322 35.6954 49.924 35.198ZM45.7735 23.238C45.9231 23.158 46.0494 23.0406 46.1398 22.8969L46.3659 22.5378C46.6985 22.9263 46.9447 23.3859 47.083 23.8873L47.8941 26.8282C48.0946 27.5551 47.9723 28.3336 47.5586 28.9639L46.6222 30.3909L41.5247 31.4663L40.622 30.5383C39.9397 29.8369 39.5639 28.9118 39.5639 27.9332V25.5778C39.5639 25.2885 39.7596 25.0359 40.0399 24.9636L40.2697 24.9042C40.9625 25.3077 41.8379 25.3402 42.5659 24.9513L45.7735 23.238ZM12.2729 24.817H18.0727C19.8462 24.817 21.2892 26.2599 21.2892 28.0335V35.8742C17.5846 34.9531 14.3422 32.6639 12.2068 29.3651C12.3264 28.9026 12.3893 28.4225 12.3893 27.9333V25.5778C12.3892 25.3143 12.3474 25.059 12.2729 24.817ZM18.0727 22.8639H9.86778C9.8001 22.2778 9.76573 21.6855 9.76573 21.0937C9.76573 20.3573 9.81934 19.6333 9.9208 18.9245L19.8365 16.532C23.2144 15.7171 26.7855 15.7171 30.1634 16.532L40.0791 18.9244C40.1806 19.6332 40.2343 20.3573 40.2343 21.0937C40.2343 21.6854 40.1993 22.2779 40.1317 22.8639H31.9274C29.077 22.8639 26.7579 25.1829 26.7579 28.0335V36.2264C26.179 36.2925 25.5926 36.3279 25.0001 36.3279C24.4075 36.3279 23.8212 36.2925 23.2423 36.2264V28.0335C23.2423 25.1829 20.9231 22.8639 18.0727 22.8639ZM28.711 28.0334C28.711 26.2599 30.1538 24.8169 31.9274 24.8169H37.7272C37.6527 25.059 37.6109 25.3142 37.6109 25.5777V27.9331C37.6109 28.4223 37.6738 28.9024 37.7934 29.3649C35.658 32.6638 32.4156 34.9529 28.711 35.874V28.0334ZM25.0001 5.85948C31.9112 5.85948 37.7614 10.4859 39.6185 16.8041L30.6215 14.6333C26.9439 13.7461 23.0559 13.7461 19.3786 14.6333L10.3816 16.8041C12.2388 10.4859 18.0888 5.85948 25.0001 5.85948ZM2.10594 26.8281L2.91706 23.8872C3.05544 23.3858 3.30153 22.9262 3.63414 22.5377L3.86022 22.8968C3.95065 23.0404 4.07691 23.1579 4.22652 23.2379L7.43411 24.9512C8.16213 25.34 9.03751 25.3076 9.73028 24.9041L9.96026 24.9635C10.2405 25.0358 10.4362 25.2884 10.4362 25.5777V27.9331C10.4362 28.9117 10.0605 29.8368 9.37813 30.5382L8.47541 31.4662L3.3779 30.3908L2.44138 28.9638C2.02771 28.3335 1.90545 27.5551 2.10594 26.8281ZM25.0001 40.2341C19.0821 40.2341 13.4955 37.4796 9.87803 32.8254L10.778 31.9002C10.9401 31.7335 11.0895 31.5577 11.2286 31.3754C12.6534 33.2794 14.466 34.8826 16.5373 36.0565C19.1053 37.5119 22.0316 38.2811 25.0002 38.2811C27.9691 38.2811 30.8959 37.5116 33.4641 36.0559C35.535 34.8819 37.3471 33.279 38.7716 31.3754C38.9107 31.5578 39.06 31.7336 39.2222 31.9003L40.123 32.8263C36.5094 37.4731 30.8931 40.2341 25.0001 40.2341Z" fill="#3EA700"/>
<path d="M25.0001 1.95312H25.024C25.5633 1.95312 26.0005 1.51592 26.0005 0.976562C26.0005 0.437207 25.5633 0 25.024 0H25.0001C24.4607 0 24.0235 0.437207 24.0235 0.976562C24.0235 1.51592 24.4607 1.95312 25.0001 1.95312Z" fill="#3EA700"/>
</g>
<defs>
<clipPath id="clip0">
<rect width="50" height="50" fill="white"/>
</clipPath>
</defs>
</svg>
