<svg width="31" height="18" viewBox="0 0 31 18" fill="none" xmlns="http://www.w3.org/2000/svg">
<path d="M29.321 1.50037H24.3853C24.1839 1.50037 23.9862 1.55499 23.8133 1.65841C23.6404 1.76184 23.4988 1.9102 23.4035 2.08771C23.4035 2.08771 21.435 5.7131 20.8027 6.93421C19.1016 10.2191 18 9.18787 18 7.66331V2.40663C18 1.96736 17.8255 1.54608 17.5149 1.23548C17.2043 0.924869 16.783 0.750371 16.3437 0.750371H12.6327C12.1274 0.712796 11.6208 0.805042 11.1611 1.01835C10.7014 1.23166 10.3039 1.55894 10.0062 1.96912C10.0062 1.96912 11.8906 1.66444 11.8906 4.20349C11.8906 4.8331 11.9231 6.64433 11.9526 8.16349C11.9582 8.38735 11.8949 8.60754 11.7714 8.79431C11.6479 8.98109 11.47 9.12546 11.2618 9.20794C11.0536 9.29042 10.8251 9.30703 10.6072 9.25553C10.3893 9.20403 10.1924 9.0869 10.0431 8.91995C8.52415 6.80733 7.26593 4.51897 6.29582 2.10457C6.2125 1.92396 6.07913 1.77104 5.91152 1.66394C5.74391 1.55685 5.5491 1.50008 5.3502 1.50037C4.2798 1.50037 2.13783 1.50037 0.865787 1.50037C0.742436 1.49953 0.620726 1.52865 0.511112 1.58523C0.401497 1.6418 0.307257 1.72414 0.236486 1.82518C0.165715 1.92621 0.12053 2.04291 0.104813 2.16526C0.089096 2.28761 0.103316 2.41195 0.146253 2.52759C1.50794 6.26267 7.37364 18.0004 14.0688 18.0004H16.8867C17.182 18.0004 17.4652 17.8831 17.6739 17.6743C17.8827 17.4655 18 17.1823 18 16.8871V15.1855C18 14.972 18.0625 14.7632 18.1797 14.5848C18.2969 14.4064 18.4637 14.2662 18.6596 14.1815C18.8555 14.0967 19.072 14.0711 19.2822 14.1079C19.4925 14.1446 19.6875 14.2421 19.843 14.3882L23.2159 17.5573C23.5189 17.8419 23.9189 18.0003 24.3345 18.0004H28.7637C30.8999 18.0004 30.8999 16.518 29.7352 15.371C28.9156 14.5637 25.9578 11.446 25.9578 11.446C25.7045 11.1836 25.5534 10.8393 25.5318 10.4752C25.5103 10.1111 25.6197 9.75133 25.8402 9.46087C26.7963 8.20273 28.36 6.14324 29.0232 5.26097C29.9297 4.05506 31.5703 1.50037 29.321 1.50037Z" fill="#929292"/>
</svg>
