<svg width="20" height="20" viewBox="0 0 20 20" fill="none" xmlns="http://www.w3.org/2000/svg">
<path d="M17.9125 5.2625C17.6 4.14688 16.9813 3.26563 16.075 2.64219C14.9313 1.85313 13.6157 1.575 12.4797 1.40469C10.9078 1.17032 9.4844 1.1375 8.12659 1.30313C6.85471 1.45938 5.8969 1.70782 5.02346 2.10938C3.31096 2.89688 2.28284 4.17032 1.96877 5.89375C1.81565 6.73125 1.71252 7.4875 1.65315 8.20938C1.51565 9.87813 1.64065 11.3547 2.0344 12.7234C2.41877 14.0578 3.08909 15.0109 4.0844 15.6375C4.33752 15.7969 4.66252 15.9125 4.97659 16.0234C5.15471 16.0859 5.32815 16.1469 5.47034 16.2141C5.60159 16.275 5.60159 16.2859 5.60002 16.3953C5.58909 17.3438 5.60002 19.2031 5.60002 19.2031L5.60315 19.6H6.31565L6.43127 19.4875C6.50784 19.4156 8.27346 17.7094 8.90315 17.0219L8.98909 16.9266C9.0969 16.8016 9.0969 16.8016 9.20784 16.8C10.0578 16.7828 10.9266 16.75 11.7891 16.7031C12.8344 16.6469 14.0453 16.5453 15.186 16.0703C16.2297 15.6344 16.9922 14.9422 17.45 14.0141C17.9282 13.0453 18.211 11.9969 18.3172 10.8078C18.5047 8.71719 18.3719 6.90313 17.9125 5.2625ZM14.1532 13.3922C13.8907 13.8188 13.5 14.1156 13.0391 14.3078C12.7016 14.4484 12.3578 14.4188 12.025 14.2781C9.23909 13.0984 7.05315 11.2406 5.6094 8.56875C5.31096 8.01875 5.10471 7.41875 4.86721 6.8375C4.81877 6.71875 4.8219 6.57813 4.80002 6.44688C4.82034 5.50782 5.54065 4.97813 6.26877 4.81875C6.5469 4.75625 6.79378 4.85469 7.00002 5.05313C7.5719 5.59688 8.02346 6.22969 8.36409 6.93907C8.51253 7.25 8.44534 7.525 8.19221 7.75625C8.13909 7.80469 8.0844 7.84844 8.02659 7.89219C7.44846 8.32657 7.36409 8.65625 7.6719 9.31094C8.1969 10.425 9.06878 11.1734 10.1953 11.6375C10.4922 11.7594 10.7719 11.6984 10.9985 11.4578C11.0297 11.4266 11.0641 11.3953 11.086 11.3578C11.5297 10.6172 12.175 10.6906 12.7703 11.1125C13.161 11.3906 13.5407 11.6844 13.9266 11.9672C14.5157 12.4 14.511 12.8063 14.1532 13.3922ZM10.4578 6C10.3266 6 10.1953 6.01094 10.0657 6.03282C9.8469 6.06875 9.64221 5.92188 9.60471 5.70313C9.56878 5.48594 9.71565 5.27969 9.9344 5.24375C10.1063 5.21407 10.2828 5.2 10.4578 5.2C12.1907 5.2 13.6 6.60938 13.6 8.34219C13.6 8.51875 13.586 8.69532 13.5563 8.86563C13.5235 9.06094 13.3547 9.2 13.1625 9.2C13.1407 9.2 13.1188 9.19844 13.0953 9.19375C12.8782 9.15782 12.7313 8.95157 12.7672 8.73438C12.7891 8.60625 12.8 8.475 12.8 8.34219C12.8 7.05157 11.7485 6 10.4578 6ZM12.4 8.4C12.4 8.62032 12.2203 8.8 12 8.8C11.7797 8.8 11.6 8.62032 11.6 8.4C11.6 7.73907 11.061 7.2 10.4 7.2C10.1797 7.2 10 7.02032 10 6.8C10 6.57969 10.1797 6.4 10.4 6.4C11.5032 6.4 12.4 7.29688 12.4 8.4ZM14.6844 9.28907C14.6422 9.475 14.4766 9.6 14.2938 9.6C14.2641 9.6 14.2344 9.59688 14.2047 9.59063C13.9891 9.54063 13.8547 9.32657 13.9032 9.11094C13.961 8.85625 13.9907 8.59219 13.9907 8.32657C13.9907 6.38282 12.4078 4.8 10.4641 4.8C10.1985 4.8 9.9344 4.82969 9.67971 4.8875C9.46409 4.9375 9.25003 4.80157 9.20159 4.58594C9.15159 4.37032 9.28753 4.15625 9.50315 4.10782C9.81565 4.03594 10.1391 4 10.4641 4C12.85 4 14.7907 5.94063 14.7907 8.32657C14.7907 8.65157 14.7547 8.975 14.6844 9.28907Z" fill="white"/>
</svg>
