<svg width="20" height="20" viewBox="0 0 20 20" fill="none" xmlns="http://www.w3.org/2000/svg">
<path d="M10.0001 0.800003C4.92728 0.800003 0.800078 4.9272 0.800078 10C0.800078 11.584 1.20928 13.1416 1.98528 14.516L0.814878 18.692C0.776478 18.8292 0.813678 18.9764 0.912878 19.0784C0.989278 19.1572 1.09328 19.2 1.20008 19.2C1.23208 19.2 1.26448 19.196 1.29608 19.1884L5.65448 18.1088C6.98528 18.8232 8.48408 19.2 10.0001 19.2C15.0729 19.2 19.2001 15.0728 19.2001 10C19.2001 4.9272 15.0729 0.800003 10.0001 0.800003ZM14.6281 13.2464C14.4313 13.7912 13.4873 14.2884 13.0337 14.3552C12.6265 14.4148 12.1113 14.4404 11.5457 14.2628C11.2029 14.1548 10.7629 14.0116 10.1993 13.7712C7.83008 12.7608 6.28288 10.4052 6.16448 10.2496C6.04648 10.094 5.20008 8.9852 5.20008 7.8376C5.20008 6.69 5.81008 6.1256 6.02688 5.892C6.24368 5.6584 6.49928 5.6 6.65688 5.6C6.81448 5.6 6.97168 5.602 7.10968 5.6084C7.25488 5.6156 7.44968 5.5536 7.64128 6.0088C7.83808 6.476 8.31048 7.6236 8.36888 7.7408C8.42808 7.8576 8.46728 7.994 8.38888 8.1496C8.31048 8.3052 8.27128 8.4024 8.15288 8.5388C8.03448 8.6752 7.90488 8.8428 7.79848 8.9476C7.68008 9.064 7.55728 9.19 7.69488 9.4236C7.83248 9.6572 8.30648 10.4208 9.00888 11.0392C9.91088 11.8336 10.6721 12.08 10.9081 12.1968C11.1441 12.3136 11.2821 12.294 11.4197 12.1384C11.5573 11.9824 12.0101 11.4572 12.1673 11.224C12.3245 10.9908 12.4821 11.0292 12.6989 11.1072C12.9157 11.1848 14.0769 11.7488 14.3129 11.8656C14.5489 11.9824 14.7065 12.0408 14.7657 12.138C14.8249 12.2348 14.8249 12.702 14.6281 13.2464Z" fill="white"/>
</svg>
