<svg width="36" height="36" viewBox="0 0 36 36" fill="none" xmlns="http://www.w3.org/2000/svg">
<g clip-path="url(#clip0)">
<path d="M10.5815 27.0536C19.6783 27.0536 27.0519 19.6789 27.0519 10.582C27.0519 6.55117 25.5995 2.8638 23.1962 0.000579834C30.6217 2.38429 35.9988 9.33946 35.9988 17.5568C35.9988 27.7429 27.7423 35.9994 17.5562 35.9994C9.33888 35.9994 2.38371 30.6223 0 23.1968C2.86322 25.6012 6.55174 27.0536 10.5815 27.0536Z" fill="#FFD93B"/>
<path d="M28.9547 3.08163C31.4214 6.21573 32.9038 10.1613 32.9038 14.4607C32.9038 24.6468 24.6472 32.9034 14.4611 32.9034C10.1617 32.9034 6.21612 31.421 3.08203 28.9543C6.45703 33.2388 11.6798 35.9994 17.5572 35.9994C27.7433 35.9994 35.9998 27.7429 35.9998 17.5568C35.9998 11.6794 33.2392 6.45779 28.9547 3.08163Z" fill="#F4C534"/>
<path d="M9.23149 7.20016L11.1311 11.0512L15.3798 11.6679L12.3056 14.6648L13.0307 18.8962L9.23149 16.8987L5.43116 18.8962L6.15619 14.6648L3.08203 11.6679L7.33075 11.0512L9.23149 7.20016Z" fill="#FFD83B"/>
<path d="M19.9469 5.96793L20.9313 7.96434L23.134 8.28363L21.5399 9.83742L21.9168 12.0298L19.9469 10.9947L17.977 12.0298L18.3539 9.83742L16.7598 8.28363L18.9625 7.96434L19.9469 5.96793Z" fill="#FFD83B"/>
</g>
<defs>
<clipPath id="clip0">
<rect width="36" height="36" fill="white"/>
</clipPath>
</defs>
</svg>
