<svg width="36" height="36" viewBox="0 0 36 36" fill="none" xmlns="http://www.w3.org/2000/svg">
<path d="M18 36C27.9411 36 36 27.9411 36 18C36 8.05887 27.9411 0 18 0C8.05887 0 0 8.05887 0 18C0 27.9411 8.05887 36 18 36Z" fill="#FFE17D"/>
<path d="M20.6129 33.3871C10.6718 33.3871 2.61288 25.3282 2.61288 15.3871C2.61288 11.0821 4.12608 7.13165 6.64713 4.03424C2.59193 7.33471 0 12.3639 0 18C0 27.9411 8.05887 36 18 36C23.6362 36 28.6654 33.408 31.9659 29.3528C28.8684 31.8738 24.918 33.3871 20.6129 33.3871Z" fill="#FFD164"/>
<path d="M18.0004 21.4667C14.5324 21.4667 11.2219 21.0641 8.18493 20.3362C7.79153 20.2419 7.45248 20.6529 7.57384 21.0812C8.97447 26.0259 13.1087 29.6129 18.0005 29.6129C22.8923 29.6129 27.0264 26.0259 28.4271 21.0812C28.5485 20.6529 28.2094 20.2419 27.816 20.3362C24.7789 21.0641 21.4684 21.4667 18.0004 21.4667Z" fill="#9C6846"/>
<path d="M27.816 20.3362C24.7789 21.0641 21.4685 21.4667 18.0004 21.4667C14.5323 21.4667 11.2219 21.0641 8.18493 20.3362C7.79153 20.2419 7.45248 20.6529 7.57384 21.0812C7.94045 22.3755 8.49831 23.5733 9.20411 24.6416C12.0897 25.1898 15.0254 25.4914 18.0017 25.4914C20.977 25.4914 23.9115 25.19 26.7963 24.6423C27.5023 23.5738 28.0604 22.3759 28.4271 21.0813C28.5483 20.6528 28.2094 20.2419 27.816 20.3362Z" fill="#7D5046"/>
<path d="M11.9047 16.2873C11.103 16.2873 10.4531 15.6374 10.4531 14.8357V12.4838C10.4531 11.6821 11.103 11.0322 11.9047 11.0322C12.7064 11.0322 13.3563 11.6821 13.3563 12.4838V14.8357C13.3563 15.6374 12.7064 16.2873 11.9047 16.2873Z" fill="#7D5046"/>
<path d="M11.9036 11.0322C11.8042 11.0322 11.7071 11.0424 11.6133 11.0615V14.255C11.6133 14.736 12.0032 15.126 12.4842 15.126C12.9653 15.126 13.3552 14.736 13.3552 14.255V12.4838C13.3552 11.6821 12.7054 11.0322 11.9036 11.0322Z" fill="#9C6846"/>
<path d="M24.0981 16.2873C23.2964 16.2873 22.6465 15.6374 22.6465 14.8357V12.4838C22.6465 11.6821 23.2964 11.0322 24.0981 11.0322C24.8998 11.0322 25.5497 11.6821 25.5497 12.4838V14.8357C25.5497 15.6374 24.8998 16.2873 24.0981 16.2873Z" fill="#7D5046"/>
<path d="M24.097 11.0322C23.9975 11.0322 23.9005 11.0424 23.8066 11.0615V14.255C23.8066 14.736 24.1966 15.126 24.6776 15.126C25.1586 15.126 25.5486 14.736 25.5486 14.255V12.4838C25.5486 11.6821 24.8987 11.0322 24.097 11.0322Z" fill="#9C6846"/>
<path d="M25.8083 22.3192C26.1222 21.7814 26.3848 21.2051 26.605 20.6052C23.9061 21.1621 21.0129 21.4667 18.0002 21.4667C14.9857 21.4667 12.0909 21.1618 9.39062 20.6042C9.61197 21.207 9.87888 21.7843 10.1949 22.3244C10.5601 22.9488 11.1785 23.3481 11.8513 23.43C13.8657 23.675 15.9186 23.8064 18.0002 23.8064C20.0814 23.8064 22.1339 23.6751 24.1479 23.4301C24.8229 23.3481 25.4425 22.9461 25.8083 22.3192Z" fill="white"/>
</svg>
