<svg width="36" height="36" viewBox="0 0 36 36" fill="none" xmlns="http://www.w3.org/2000/svg">
<path d="M17.9993 28.1827C23.6232 28.1827 28.1823 23.6237 28.1823 17.9998C28.1823 12.3759 23.6232 7.81685 17.9993 7.81685C12.3755 7.81685 7.81641 12.3759 7.81641 17.9998C7.81641 23.6237 12.3755 28.1827 17.9993 28.1827Z" fill="#FFD347"/>
<path d="M17.9991 3.9972C17.6986 3.9972 17.4551 3.7537 17.4551 3.45319V0.544008C17.4551 0.243492 17.6986 0 17.9991 0C18.2995 0 18.5431 0.243492 18.5431 0.544008V3.45326C18.5431 3.7537 18.2995 3.9972 17.9991 3.9972Z" fill="#FFD347"/>
<path d="M10.7276 5.94619C10.5396 5.94619 10.3568 5.84866 10.256 5.67415L8.80148 3.15471C8.65129 2.89455 8.74038 2.56184 9.0006 2.41158C9.26083 2.26153 9.59348 2.35041 9.74374 2.6107L11.1983 5.13014C11.3485 5.3903 11.2594 5.72301 10.9992 5.87327C10.9135 5.9227 10.8199 5.94619 10.7276 5.94619Z" fill="#FFD347"/>
<path d="M5.40283 11.2707C5.31058 11.2707 5.217 11.2472 5.13135 11.1977L2.61192 9.74313C2.35176 9.59295 2.2626 9.26023 2.41279 9C2.56298 8.73977 2.8957 8.65076 3.15592 8.80088L5.67536 10.2554C5.93552 10.4056 6.02467 10.7383 5.87449 10.9986C5.77366 11.1731 5.59085 11.2707 5.40283 11.2707Z" fill="#FFD347"/>
<path d="M3.45319 18.544H0.544008C0.243563 18.544 0 18.3005 0 18C0 17.6995 0.243563 17.456 0.544008 17.456H3.45326C3.7537 17.456 3.99727 17.6995 3.99727 18C3.99727 18.3005 3.75363 18.544 3.45319 18.544Z" fill="#FFD347"/>
<path d="M2.88244 27.272C2.69443 27.272 2.51161 27.1745 2.41085 27C2.26067 26.7398 2.34975 26.4071 2.60998 26.2569L5.12942 24.8023C5.38958 24.6523 5.72229 24.7411 5.87255 25.0014C6.02274 25.2616 5.93365 25.5943 5.67343 25.7446L3.15399 27.1991C3.06828 27.2485 2.97469 27.272 2.88244 27.272Z" fill="#FFD347"/>
<path d="M9.27207 33.6614C9.17982 33.6614 9.08623 33.6379 9.00059 33.5884C8.74043 33.4382 8.65128 33.1055 8.80146 32.8453L10.256 30.3259C10.4062 30.0656 10.7389 29.9766 10.9992 30.1267C11.2593 30.2769 11.3485 30.6096 11.1983 30.8699L9.74372 33.3893C9.64289 33.5638 9.46008 33.6614 9.27207 33.6614Z" fill="#FFD347"/>
<path d="M17.9991 36C17.6986 36 17.4551 35.7565 17.4551 35.456V32.5467C17.4551 32.2462 17.6986 32.0027 17.9991 32.0027C18.2995 32.0027 18.5431 32.2462 18.5431 32.5467V35.456C18.5431 35.7565 18.2995 36 17.9991 36Z" fill="#FFD347"/>
<path d="M26.7276 33.6614C26.5396 33.6614 26.3568 33.5639 26.256 33.3894L24.8015 30.8699C24.6513 30.6098 24.7404 30.2771 25.0006 30.1268C25.2608 29.9767 25.5935 30.0656 25.7437 30.3259L27.1983 32.8453C27.3485 33.1055 27.2594 33.4382 26.9992 33.5885C26.9135 33.6379 26.8199 33.6614 26.7276 33.6614Z" fill="#FFD347"/>
<path d="M33.1177 27.272C33.0254 27.272 32.9318 27.2486 32.8462 27.1991L30.3268 25.7445C30.0666 25.5943 29.9774 25.2616 30.1276 25.0014C30.2778 24.7411 30.6105 24.6521 30.8708 24.8022L33.3902 26.2568C33.6504 26.407 33.7395 26.7397 33.5893 26.9999C33.4885 27.1744 33.3057 27.272 33.1177 27.272Z" fill="#FFD347"/>
<path d="M35.4552 18.544H32.546C32.2455 18.544 32.002 18.3005 32.002 18C32.002 17.6995 32.2455 17.456 32.546 17.456H35.4552C35.7557 17.456 35.9992 17.6995 35.9992 18C35.9992 18.3005 35.7557 18.544 35.4552 18.544Z" fill="#FFD347"/>
<path d="M30.5992 11.2707C30.4112 11.2707 30.2284 11.1732 30.1277 10.9986C29.9775 10.7385 30.0665 10.4058 30.3268 10.2555L32.8462 8.80095C33.1064 8.6509 33.4391 8.73978 33.5894 9.00008C33.7395 9.26023 33.6505 9.59295 33.3902 9.74321L30.8708 11.1978C30.7851 11.2472 30.6915 11.2707 30.5992 11.2707Z" fill="#FFD347"/>
<path d="M25.2721 5.94619C25.1798 5.94619 25.0862 5.92271 25.0006 5.87321C24.7404 5.72302 24.6513 5.3903 24.8015 5.13007L26.256 2.61064C26.4062 2.35041 26.7389 2.26139 26.9992 2.41151C27.2593 2.5617 27.3485 2.89442 27.1983 3.15464L25.7437 5.67408C25.6429 5.84867 25.46 5.94619 25.2721 5.94619Z" fill="#FFD347"/>
<path d="M17.9992 7.81735C17.6306 7.81735 17.2667 7.83746 16.9082 7.87557C22.0189 8.42 25.9998 12.7449 25.9998 17.9999C25.9998 23.255 22.0188 27.5799 16.9082 28.1244C17.2667 28.1626 17.6305 28.1826 17.9992 28.1826C23.6229 28.1826 28.1818 23.6237 28.1818 17.9999C28.1818 12.3762 23.623 7.81735 17.9992 7.81735Z" fill="#FFBE31"/>
</svg>
